<svg xmlns="http://www.w3.org/2000/svg" xmlns:xlink="http://www.w3.org/1999/xlink" width="1080" zoomAndPan="magnify" viewBox="0 0 810 809.999993" height="1080" preserveAspectRatio="xMidYMid meet" version="1.0"><defs><clipPath id="df2108e4d6"><path d="M 0 71 L 782.257812 71 L 782.257812 810 L 0 810 Z M 0 71 " clip-rule="nonzero"/></clipPath><clipPath id="fe6d57ab9c"><path d="M 135 668 L 195 668 L 195 717.84375 L 135 717.84375 Z M 135 668 " clip-rule="nonzero"/></clipPath><clipPath id="7a4495d0de"><path d="M 565 668 L 625 668 L 625 717.84375 L 565 717.84375 Z M 565 668 " clip-rule="nonzero"/></clipPath><clipPath id="1e88f268cd"><path d="M 96.339844 522 L 663.339844 522 L 663.339844 679 L 96.339844 679 Z M 96.339844 522 " clip-rule="nonzero"/></clipPath><clipPath id="fb8ae62597"><path d="M 252 150.84375 L 507 150.84375 L 507 230 L 252 230 Z M 252 150.84375 " clip-rule="nonzero"/></clipPath></defs><path fill="#e7f7ff" d="M 258.949219 42.714844 L 257.5 42.722656 C 203.550781 42.015625 155.457031 68.628906 113.21875 122.554688 C 66.660156 192.316406 36.664062 241.8125 23.238281 271.050781 C 5.730469 304.992188 -3.175781 337.6875 -3.472656 369.132812 C -1.222656 401.25 2.40625 425.664062 7.414062 442.371094 C 33.03125 497.773438 47.753906 531.828125 51.582031 544.527344 C 65.015625 630.886719 73.480469 682.132812 76.976562 698.265625 C 77.285156 702.316406 83.082031 716.386719 94.371094 740.476562 C 106.585938 761.71875 120.007812 776.566406 134.632812 785.019531 C 163.046875 802.433594 192.699219 811.628906 223.59375 812.605469 C 234.453125 812.574219 245.136719 811.1875 255.640625 808.441406 L 411.734375 746.550781 C 481.152344 734.894531 545.75 721.753906 605.527344 707.128906 C 633.246094 697.691406 658.382812 681.414062 680.9375 658.296875 C 704.199219 633.640625 722.1875 594.898438 734.90625 542.078125 C 738.535156 529.320312 738.867188 481.597656 735.90625 398.90625 L 753.585938 278.273438 C 754.605469 259.480469 751.066406 242.5 742.96875 227.339844 C 738.917969 219.761719 733.730469 212.632812 727.402344 205.960938 C 709.585938 190.078125 697.53125 181.089844 691.234375 179.003906 C 675.921875 171.992188 661.277344 166.792969 647.304688 163.410156 C 537.878906 142.746094 472.203125 129.335938 450.277344 123.175781 C 428.984375 118.636719 382.769531 94.890625 311.628906 51.925781 C 298.023438 46.574219 280.464844 43.503906 258.949219 42.714844 " fill-opacity="1" fill-rule="nonzero"/><g clip-path="url(#df2108e4d6)"><path fill="#e7f7ff" d="M 337.082031 71.113281 C 334.175781 71.113281 331.816406 73.472656 331.816406 76.382812 C 331.816406 79.289062 334.175781 81.648438 337.082031 81.648438 C 339.992188 81.648438 342.351562 79.289062 342.351562 76.382812 C 342.351562 73.472656 339.992188 71.113281 337.082031 71.113281 Z M 316.050781 71.386719 C 313.140625 71.386719 310.785156 73.742188 310.785156 76.652344 C 310.785156 79.5625 313.140625 81.917969 316.050781 81.917969 C 318.957031 81.917969 321.316406 79.5625 321.316406 76.652344 C 321.316406 73.742188 318.957031 71.386719 316.050781 71.386719 Z M 295.148438 73.882812 C 292.242188 73.882812 289.882812 76.242188 289.882812 79.148438 C 289.882812 82.058594 292.242188 84.417969 295.148438 84.417969 C 298.058594 84.417969 300.414062 82.058594 300.414062 79.148438 C 300.414062 76.242188 298.058594 73.882812 295.148438 73.882812 Z M 357.9375 73.960938 C 355.027344 73.960938 352.667969 76.316406 352.667969 79.226562 C 352.667969 82.132812 355.027344 84.492188 357.9375 84.492188 C 360.84375 84.492188 363.203125 82.132812 363.203125 79.226562 C 363.203125 76.316406 360.84375 73.960938 357.9375 73.960938 Z M 275.429688 80.292969 C 272.519531 80.292969 270.160156 82.652344 270.160156 85.558594 C 270.160156 88.46875 272.519531 90.824219 275.429688 90.824219 C 278.335938 90.824219 280.695312 88.46875 280.695312 85.558594 C 280.695312 82.652344 278.335938 80.292969 275.429688 80.292969 Z M 377.695312 81.046875 C 374.785156 81.046875 372.429688 83.40625 372.429688 86.316406 C 372.429688 89.222656 374.785156 91.582031 377.695312 91.582031 C 380.601562 91.582031 382.960938 89.222656 382.960938 86.316406 C 382.960938 83.40625 380.601562 81.046875 377.695312 81.046875 Z M 434.21875 84.75 C 431.308594 84.75 428.949219 87.105469 428.949219 90.015625 C 428.949219 92.921875 431.308594 95.28125 434.21875 95.28125 C 437.125 95.28125 439.484375 92.921875 439.484375 90.015625 C 439.484375 87.105469 437.125 84.75 434.21875 84.75 Z M 455.097656 87.292969 C 452.191406 87.292969 449.832031 89.648438 449.832031 92.558594 C 449.832031 95.464844 452.191406 97.824219 455.097656 97.824219 C 458.007812 97.824219 460.363281 95.464844 460.363281 92.558594 C 460.363281 89.648438 458.007812 87.292969 455.097656 87.292969 Z M 256.789062 90.105469 C 253.878906 90.105469 251.523438 92.464844 251.523438 95.371094 C 251.523438 98.28125 253.878906 100.636719 256.789062 100.636719 C 259.699219 100.636719 262.054688 98.28125 262.054688 95.371094 C 262.054688 92.464844 259.699219 90.105469 256.789062 90.105469 Z M 475.789062 91.273438 C 472.878906 91.273438 470.523438 93.632812 470.523438 96.542969 C 470.523438 99.449219 472.878906 101.808594 475.789062 101.808594 C 478.695312 101.808594 481.054688 99.449219 481.054688 96.542969 C 481.054688 93.632812 478.695312 91.273438 475.789062 91.273438 Z M 496.105469 96.800781 C 493.199219 96.800781 490.839844 99.160156 490.839844 102.066406 C 490.839844 104.976562 493.199219 107.332031 496.105469 107.332031 C 499.015625 107.332031 501.371094 104.976562 501.371094 102.066406 C 501.371094 99.160156 499.015625 96.800781 496.105469 96.800781 Z M 238.347656 100.285156 C 235.4375 100.285156 233.082031 102.644531 233.082031 105.550781 C 233.082031 108.460938 235.4375 110.816406 238.347656 110.816406 C 241.257812 110.816406 243.613281 108.460938 243.613281 105.550781 C 243.613281 102.644531 241.257812 100.285156 238.347656 100.285156 Z M 515.898438 103.953125 C 512.988281 103.953125 510.632812 106.308594 510.632812 109.21875 C 510.632812 112.125 512.988281 114.484375 515.898438 114.484375 C 518.804688 114.484375 521.164062 112.125 521.164062 109.21875 C 521.164062 106.308594 518.804688 103.953125 515.898438 103.953125 Z M 220 110.636719 C 217.09375 110.636719 214.734375 112.992188 214.734375 115.902344 C 214.734375 118.808594 217.09375 121.167969 220 121.167969 C 222.910156 121.167969 225.265625 118.808594 225.265625 115.902344 C 225.265625 112.992188 222.910156 110.636719 220 110.636719 Z M 535.011719 112.785156 C 532.101562 112.785156 529.746094 115.140625 529.746094 118.050781 C 529.746094 120.960938 532.101562 123.316406 535.011719 123.316406 C 537.921875 123.316406 540.277344 120.960938 540.277344 118.050781 C 540.277344 115.140625 537.921875 112.785156 535.011719 112.785156 Z M 201.710938 121.085938 C 198.804688 121.085938 196.445312 123.445312 196.445312 126.351562 C 196.445312 129.261719 198.804688 131.617188 201.710938 131.617188 C 204.621094 131.617188 206.976562 129.261719 206.976562 126.351562 C 206.976562 123.445312 204.621094 121.085938 201.710938 121.085938 Z M 553.257812 123.289062 C 550.347656 123.289062 547.992188 125.644531 547.992188 128.554688 C 547.992188 131.464844 550.347656 133.820312 553.257812 133.820312 C 556.164062 133.820312 558.523438 131.464844 558.523438 128.554688 C 558.523438 125.644531 556.164062 123.289062 553.257812 123.289062 Z M 182.746094 130.148438 C 179.835938 130.148438 177.480469 132.503906 177.480469 135.414062 C 177.480469 138.320312 179.835938 140.679688 182.746094 140.679688 C 185.65625 140.679688 188.011719 138.320312 188.011719 135.414062 C 188.011719 132.503906 185.65625 130.148438 182.746094 130.148438 Z M 570.472656 135.402344 C 567.5625 135.402344 565.203125 137.761719 565.203125 140.667969 C 565.203125 143.578125 567.5625 145.933594 570.472656 145.933594 C 573.378906 145.933594 575.738281 143.578125 575.738281 140.667969 C 575.738281 137.761719 573.378906 135.402344 570.472656 135.402344 Z M 163.273438 138.175781 C 160.363281 138.175781 158.003906 140.535156 158.003906 143.441406 C 158.003906 146.351562 160.363281 148.707031 163.273438 148.707031 C 166.179688 148.707031 168.539062 146.351562 168.539062 143.441406 C 168.539062 140.535156 166.179688 138.175781 163.273438 138.175781 Z M 143.839844 146.308594 C 140.933594 146.308594 138.574219 148.667969 138.574219 151.574219 C 138.574219 154.484375 140.933594 156.839844 143.839844 156.839844 C 146.75 156.839844 149.105469 154.484375 149.105469 151.574219 C 149.105469 148.667969 146.75 146.308594 143.839844 146.308594 Z M 586.53125 149.019531 C 583.625 149.019531 581.265625 151.378906 581.265625 154.285156 C 581.265625 157.195312 583.625 159.554688 586.53125 159.554688 C 589.441406 159.554688 591.800781 157.195312 591.800781 154.285156 C 591.800781 151.378906 589.441406 149.019531 586.53125 149.019531 Z M 124.46875 154.582031 C 121.558594 154.582031 119.203125 156.9375 119.203125 159.847656 C 119.203125 162.753906 121.558594 165.113281 124.46875 165.113281 C 127.375 165.113281 129.734375 162.753906 129.734375 159.847656 C 129.734375 156.9375 127.375 154.582031 124.46875 154.582031 Z M 602.660156 162.160156 C 599.75 162.160156 597.394531 164.519531 597.394531 167.425781 C 597.394531 170.335938 599.75 172.695312 602.660156 172.695312 C 605.566406 172.695312 607.925781 170.335938 607.925781 167.425781 C 607.925781 164.519531 605.566406 162.160156 602.660156 162.160156 Z M 105.179688 163.050781 C 102.273438 163.050781 99.914062 165.410156 99.914062 168.320312 C 99.914062 171.226562 102.273438 173.585938 105.179688 173.585938 C 108.089844 173.585938 110.449219 171.226562 110.449219 168.320312 C 110.449219 165.410156 108.089844 163.050781 105.179688 163.050781 Z M 86.039062 171.847656 C 83.132812 171.847656 80.773438 174.203125 80.773438 177.113281 C 80.773438 180.019531 83.132812 182.378906 86.039062 182.378906 C 88.949219 182.378906 91.308594 180.019531 91.308594 177.113281 C 91.308594 174.203125 88.949219 171.847656 86.039062 171.847656 Z M 615.871094 178.539062 C 612.960938 178.539062 610.605469 180.898438 610.605469 183.808594 C 610.605469 186.714844 612.960938 189.074219 615.871094 189.074219 C 618.777344 189.074219 621.136719 186.714844 621.136719 183.808594 C 621.136719 180.898438 618.777344 178.539062 615.871094 178.539062 Z M 67.226562 181.308594 C 64.316406 181.308594 61.957031 183.667969 61.957031 186.578125 C 61.957031 189.484375 64.316406 191.84375 67.226562 191.84375 C 70.132812 191.84375 72.492188 189.484375 72.492188 186.578125 C 72.492188 183.667969 70.132812 181.308594 67.226562 181.308594 Z M 50.585938 193.902344 C 47.675781 193.902344 45.320312 196.261719 45.320312 199.167969 C 45.320312 202.078125 47.675781 204.433594 50.585938 204.433594 C 53.492188 204.433594 55.851562 202.078125 55.851562 199.167969 C 55.851562 196.261719 53.492188 193.902344 50.585938 193.902344 Z M 627.628906 196.015625 C 624.71875 196.015625 622.359375 198.375 622.359375 201.28125 C 622.359375 204.191406 624.71875 206.550781 627.628906 206.550781 C 630.535156 206.550781 632.894531 204.191406 632.894531 201.28125 C 632.894531 198.375 630.535156 196.015625 627.628906 196.015625 Z M 34.953125 208.003906 C 32.046875 208.003906 29.6875 210.359375 29.6875 213.269531 C 29.6875 216.175781 32.046875 218.535156 34.953125 218.535156 C 37.863281 218.535156 40.21875 216.175781 40.21875 213.269531 C 40.21875 210.359375 37.863281 208.003906 34.953125 208.003906 Z M 638.765625 213.894531 C 635.855469 213.894531 633.5 216.253906 633.5 219.160156 C 633.5 222.070312 635.855469 224.425781 638.765625 224.425781 C 641.675781 224.425781 644.03125 222.070312 644.03125 219.160156 C 644.03125 216.253906 641.675781 213.894531 638.765625 213.894531 Z M 20.703125 223.457031 C 17.792969 223.457031 15.4375 225.816406 15.4375 228.722656 C 15.4375 231.632812 17.792969 233.992188 20.703125 233.992188 C 23.613281 233.992188 25.96875 231.632812 25.96875 228.722656 C 25.96875 225.816406 23.613281 223.457031 20.703125 223.457031 Z M 649.539062 231.996094 C 646.628906 231.996094 644.273438 234.355469 644.273438 237.261719 C 644.273438 240.171875 646.628906 242.527344 649.539062 242.527344 C 652.445312 242.527344 654.804688 240.171875 654.804688 237.261719 C 654.804688 234.355469 652.445312 231.996094 649.539062 231.996094 Z M 8.164062 240.378906 C 5.253906 240.378906 2.898438 242.734375 2.898438 245.644531 C 2.898438 248.550781 5.253906 250.910156 8.164062 250.910156 C 11.074219 250.910156 13.429688 248.550781 13.429688 245.644531 C 13.429688 242.734375 11.074219 240.378906 8.164062 240.378906 Z M 660.058594 250.246094 C 657.152344 250.246094 654.792969 252.601562 654.792969 255.511719 C 654.792969 258.417969 657.152344 260.777344 660.058594 260.777344 C 662.96875 260.777344 665.328125 258.417969 665.328125 255.511719 C 665.328125 252.601562 662.96875 250.246094 660.058594 250.246094 Z M -2.207031 258.671875 C -5.117188 258.671875 -7.472656 261.03125 -7.472656 263.9375 C -7.472656 266.847656 -5.117188 269.203125 -2.207031 269.203125 C 0.699219 269.203125 3.058594 266.847656 3.058594 263.9375 C 3.058594 261.03125 0.699219 258.671875 -2.207031 258.671875 Z M 670.398438 268.597656 C 667.488281 268.597656 665.132812 270.957031 665.132812 273.863281 C 665.132812 276.773438 667.488281 279.128906 670.398438 279.128906 C 673.308594 279.128906 675.664062 276.773438 675.664062 273.863281 C 675.664062 270.957031 673.308594 268.597656 670.398438 268.597656 Z M -10.042969 278.1875 C -12.949219 278.1875 -15.308594 280.542969 -15.308594 283.453125 C -15.308594 286.363281 -12.949219 288.71875 -10.042969 288.71875 C -7.132812 288.71875 -4.777344 286.363281 -4.777344 283.453125 C -4.777344 280.542969 -7.132812 278.1875 -10.042969 278.1875 Z M 680.59375 287.03125 C 677.683594 287.03125 675.328125 289.390625 675.328125 292.296875 C 675.328125 295.207031 677.683594 297.5625 680.59375 297.5625 C 683.5 297.5625 685.859375 295.207031 685.859375 292.296875 C 685.859375 289.390625 683.5 287.03125 680.59375 287.03125 Z M -15.070312 298.605469 C -17.980469 298.605469 -20.339844 300.964844 -20.339844 303.871094 C -20.339844 306.78125 -17.980469 309.136719 -15.070312 309.136719 C -12.164062 309.136719 -9.804688 306.78125 -9.804688 303.871094 C -9.804688 300.964844 -12.164062 298.605469 -15.070312 298.605469 Z M 690.671875 305.527344 C 687.765625 305.527344 685.40625 307.886719 685.40625 310.792969 C 685.40625 313.703125 687.765625 316.0625 690.671875 316.0625 C 693.582031 316.0625 695.9375 313.703125 695.9375 310.792969 C 695.9375 307.886719 693.582031 305.527344 690.671875 305.527344 Z M -17.234375 319.53125 C -20.140625 319.53125 -22.5 321.890625 -22.5 324.796875 C -22.5 327.707031 -20.140625 330.066406 -17.234375 330.066406 C -14.324219 330.066406 -11.96875 327.707031 -11.96875 324.796875 C -11.96875 321.890625 -14.324219 319.53125 -17.234375 319.53125 Z M 703.195312 322.332031 C 700.289062 322.332031 697.929688 324.691406 697.929688 327.597656 C 697.929688 330.507812 700.289062 332.863281 703.195312 332.863281 C 706.105469 332.863281 708.460938 330.507812 708.460938 327.597656 C 708.460938 324.691406 706.105469 322.332031 703.195312 322.332031 Z M 717.242188 338.027344 C 714.335938 338.027344 711.976562 340.386719 711.976562 343.292969 C 711.976562 346.203125 714.335938 348.5625 717.242188 348.5625 C 720.152344 348.5625 722.507812 346.203125 722.507812 343.292969 C 722.507812 340.386719 720.152344 338.027344 717.242188 338.027344 Z M -16.671875 340.558594 C -19.582031 340.558594 -21.9375 342.917969 -21.9375 345.824219 C -21.9375 348.734375 -19.582031 351.09375 -16.671875 351.09375 C -13.765625 351.09375 -11.40625 348.734375 -11.40625 345.824219 C -11.40625 342.917969 -13.765625 340.558594 -16.671875 340.558594 Z M 731.507812 353.53125 C 728.597656 353.53125 726.238281 355.886719 726.238281 358.796875 C 726.238281 361.703125 728.597656 364.0625 731.507812 364.0625 C 734.414062 364.0625 736.773438 361.703125 736.773438 358.796875 C 736.773438 355.886719 734.414062 353.53125 731.507812 353.53125 Z M -13.683594 361.382812 C -16.589844 361.382812 -18.949219 363.742188 -18.949219 366.652344 C -18.949219 369.558594 -16.589844 371.917969 -13.683594 371.917969 C -10.773438 371.917969 -8.414062 369.558594 -8.414062 366.652344 C -8.414062 363.742188 -10.773438 361.382812 -13.683594 361.382812 Z M 745.875 368.933594 C 742.964844 368.933594 740.609375 371.292969 740.609375 374.199219 C 740.609375 377.109375 742.964844 379.464844 745.875 379.464844 C 748.78125 379.464844 751.140625 377.109375 751.140625 374.199219 C 751.140625 371.292969 748.78125 368.933594 745.875 368.933594 Z M -8.609375 381.804688 C -11.519531 381.804688 -13.875 384.164062 -13.875 387.074219 C -13.875 389.980469 -11.519531 392.339844 -8.609375 392.339844 C -5.703125 392.339844 -3.34375 389.980469 -3.34375 387.074219 C -3.34375 384.164062 -5.703125 381.804688 -8.609375 381.804688 Z M 759.496094 384.90625 C 756.589844 384.90625 754.230469 387.261719 754.230469 390.171875 C 754.230469 393.082031 756.589844 395.4375 759.496094 395.4375 C 762.40625 395.4375 764.765625 393.082031 764.765625 390.171875 C 764.765625 387.261719 762.40625 384.90625 759.496094 384.90625 Z M -2.300781 401.96875 C -5.207031 401.96875 -7.566406 404.328125 -7.566406 407.234375 C -7.566406 410.144531 -5.207031 412.503906 -2.300781 412.503906 C 0.609375 412.503906 2.96875 410.144531 2.96875 407.234375 C 2.96875 404.328125 0.609375 401.96875 -2.300781 401.96875 Z M 768.488281 403.90625 C 765.578125 403.90625 763.222656 406.265625 763.222656 409.175781 C 763.222656 412.082031 765.578125 414.441406 768.488281 414.441406 C 771.398438 414.441406 773.753906 412.082031 773.753906 409.175781 C 773.753906 406.265625 771.398438 403.90625 768.488281 403.90625 Z M 5.5 421.527344 C 2.589844 421.527344 0.234375 423.886719 0.234375 426.792969 C 0.234375 429.703125 2.589844 432.058594 5.5 432.058594 C 8.40625 432.058594 10.765625 429.703125 10.765625 426.792969 C 10.765625 423.886719 8.40625 421.527344 5.5 421.527344 Z M 774.035156 424.234375 C 771.125 424.234375 768.769531 426.59375 768.769531 429.5 C 768.769531 432.410156 771.125 434.765625 774.035156 434.765625 C 776.945312 434.765625 779.300781 432.410156 779.300781 429.5 C 779.300781 426.59375 776.945312 424.234375 774.035156 424.234375 Z M 14.96875 440.332031 C 12.0625 440.332031 9.703125 442.691406 9.703125 445.601562 C 9.703125 448.507812 12.0625 450.867188 14.96875 450.867188 C 17.878906 450.867188 20.234375 448.507812 20.234375 445.601562 C 20.234375 442.691406 17.878906 440.332031 14.96875 440.332031 Z M 776.894531 445.089844 C 773.984375 445.089844 771.628906 447.449219 771.628906 450.355469 C 771.628906 453.265625 773.984375 455.625 776.894531 455.625 C 779.800781 455.625 782.160156 453.265625 782.160156 450.355469 C 782.160156 447.449219 779.800781 445.089844 776.894531 445.089844 Z M 25.679688 458.457031 C 22.769531 458.457031 20.414062 460.8125 20.414062 463.722656 C 20.414062 466.628906 22.769531 468.988281 25.679688 468.988281 C 28.589844 468.988281 30.945312 466.628906 30.945312 463.722656 C 30.945312 460.8125 28.589844 458.457031 25.679688 458.457031 Z M 776.15625 466.097656 C 773.246094 466.097656 770.886719 468.457031 770.886719 471.363281 C 770.886719 474.273438 773.246094 476.628906 776.15625 476.628906 C 779.0625 476.628906 781.421875 474.273438 781.421875 471.363281 C 781.421875 468.457031 779.0625 466.097656 776.15625 466.097656 Z M 38.425781 475.21875 C 35.515625 475.21875 33.15625 477.578125 33.15625 480.484375 C 33.15625 483.394531 35.515625 485.75 38.425781 485.75 C 41.332031 485.75 43.691406 483.394531 43.691406 480.484375 C 43.691406 477.578125 41.332031 475.21875 38.425781 475.21875 Z M 770.363281 486.269531 C 767.457031 486.269531 765.097656 488.628906 765.097656 491.535156 C 765.097656 494.445312 767.457031 496.804688 770.363281 496.804688 C 773.273438 496.804688 775.628906 494.445312 775.628906 491.535156 C 775.628906 488.628906 773.273438 486.269531 770.363281 486.269531 Z M 51.992188 491.332031 C 49.082031 491.332031 46.726562 493.6875 46.726562 496.597656 C 46.726562 499.507812 49.082031 501.863281 51.992188 501.863281 C 54.898438 501.863281 57.257812 499.507812 57.257812 496.597656 C 57.257812 493.6875 54.898438 491.332031 51.992188 491.332031 Z M 758.144531 503.214844 C 755.238281 503.214844 752.878906 505.570312 752.878906 508.480469 C 752.878906 511.390625 755.238281 513.746094 758.144531 513.746094 C 761.054688 513.746094 763.410156 511.390625 763.410156 508.480469 C 763.410156 505.570312 761.054688 503.214844 758.144531 503.214844 Z M 65.894531 507.15625 C 62.984375 507.15625 60.625 509.515625 60.625 512.421875 C 60.625 515.332031 62.984375 517.691406 65.894531 517.691406 C 68.800781 517.691406 71.160156 515.332031 71.160156 512.421875 C 71.160156 509.515625 68.800781 507.15625 65.894531 507.15625 Z M 743.730469 518.574219 C 740.824219 518.574219 738.464844 520.933594 738.464844 523.839844 C 738.464844 526.75 740.824219 529.109375 743.730469 529.109375 C 746.640625 529.109375 749 526.75 749 523.839844 C 749 520.933594 746.640625 518.574219 743.730469 518.574219 Z M 79.988281 522.808594 C 77.082031 522.808594 74.722656 525.167969 74.722656 528.078125 C 74.722656 530.984375 77.082031 533.34375 79.988281 533.34375 C 82.898438 533.34375 85.253906 530.984375 85.253906 528.078125 C 85.253906 525.167969 82.898438 522.808594 79.988281 522.808594 Z M 729.515625 534.117188 C 726.605469 534.117188 724.246094 536.476562 724.246094 539.382812 C 724.246094 542.292969 726.605469 544.648438 729.515625 544.648438 C 732.421875 544.648438 734.78125 542.292969 734.78125 539.382812 C 734.78125 536.476562 732.421875 534.117188 729.515625 534.117188 Z M 93.671875 538.800781 C 90.765625 538.800781 88.40625 541.160156 88.40625 544.070312 C 88.40625 546.976562 90.765625 549.335938 93.671875 549.335938 C 96.582031 549.335938 98.9375 546.976562 98.9375 544.070312 C 98.9375 541.160156 96.582031 538.800781 93.671875 538.800781 Z M 715.628906 549.957031 C 712.71875 549.957031 710.363281 552.316406 710.363281 555.222656 C 710.363281 558.132812 712.71875 560.488281 715.628906 560.488281 C 718.539062 560.488281 720.894531 558.132812 720.894531 555.222656 C 720.894531 552.316406 718.539062 549.957031 715.628906 549.957031 Z M 104.433594 556.890625 C 101.527344 556.890625 99.167969 559.246094 99.167969 562.15625 C 99.167969 565.0625 101.527344 567.421875 104.433594 567.421875 C 107.34375 567.421875 109.703125 565.0625 109.703125 562.15625 C 109.703125 559.246094 107.34375 556.890625 104.433594 556.890625 Z M 702.527344 566.445312 C 699.621094 566.445312 697.261719 568.800781 697.261719 571.710938 C 697.261719 574.621094 699.621094 576.976562 702.527344 576.976562 C 705.4375 576.976562 707.796875 574.621094 707.796875 571.710938 C 707.796875 568.800781 705.4375 566.445312 702.527344 566.445312 Z M 112.390625 576.351562 C 109.484375 576.351562 107.125 578.710938 107.125 581.621094 C 107.125 584.527344 109.484375 586.886719 112.390625 586.886719 C 115.300781 586.886719 117.65625 584.527344 117.65625 581.621094 C 117.65625 578.710938 115.300781 576.351562 112.390625 576.351562 Z M 693.070312 585.1875 C 690.160156 585.1875 687.804688 587.542969 687.804688 590.453125 C 687.804688 593.359375 690.160156 595.71875 693.070312 595.71875 C 695.976562 595.71875 698.335938 593.359375 698.335938 590.453125 C 698.335938 587.542969 695.976562 585.1875 693.070312 585.1875 Z M 117.84375 596.691406 C 114.9375 596.691406 112.578125 599.050781 112.578125 601.957031 C 112.578125 604.867188 114.9375 607.226562 117.84375 607.226562 C 120.753906 607.226562 123.109375 604.867188 123.109375 601.957031 C 123.109375 599.050781 120.753906 596.691406 117.84375 596.691406 Z M 684.699219 604.515625 C 681.792969 604.515625 679.433594 606.875 679.433594 609.78125 C 679.433594 612.691406 681.792969 615.050781 684.699219 615.050781 C 687.609375 615.050781 689.96875 612.691406 689.96875 609.78125 C 689.96875 606.875 687.609375 604.515625 684.699219 604.515625 Z M 121.261719 617.464844 C 118.355469 617.464844 115.996094 619.824219 115.996094 622.730469 C 115.996094 625.640625 118.355469 627.996094 121.261719 627.996094 C 124.171875 627.996094 126.53125 625.640625 126.53125 622.730469 C 126.53125 619.824219 124.171875 617.464844 121.261719 617.464844 Z M 676.164062 623.773438 C 673.257812 623.773438 670.898438 626.132812 670.898438 629.039062 C 670.898438 631.949219 673.257812 634.308594 676.164062 634.308594 C 679.074219 634.308594 681.433594 631.949219 681.433594 629.039062 C 681.433594 626.132812 679.074219 623.773438 676.164062 623.773438 Z M 122.578125 638.476562 C 119.667969 638.476562 117.3125 640.832031 117.3125 643.742188 C 117.3125 646.652344 119.667969 649.007812 122.578125 649.007812 C 125.488281 649.007812 127.84375 646.652344 127.84375 643.742188 C 127.84375 640.832031 125.488281 638.476562 122.578125 638.476562 Z M 667.398438 642.929688 C 664.492188 642.929688 662.132812 645.285156 662.132812 648.195312 C 662.132812 651.101562 664.492188 653.460938 667.398438 653.460938 C 670.308594 653.460938 672.664062 651.101562 672.664062 648.195312 C 672.664062 645.285156 670.308594 642.929688 667.398438 642.929688 Z M 120.320312 659.359375 C 117.410156 659.359375 115.050781 661.71875 115.050781 664.625 C 115.050781 667.535156 117.410156 669.890625 120.320312 669.890625 C 123.226562 669.890625 125.585938 667.535156 125.585938 664.625 C 125.585938 661.71875 123.226562 659.359375 120.320312 659.359375 Z M 658.285156 661.917969 C 655.378906 661.917969 653.019531 664.277344 653.019531 667.183594 C 653.019531 670.09375 655.378906 672.453125 658.285156 672.453125 C 661.195312 672.453125 663.550781 670.09375 663.550781 667.183594 C 663.550781 664.277344 661.195312 661.917969 658.285156 661.917969 Z M 116.957031 680.15625 C 114.046875 680.15625 111.691406 682.511719 111.691406 685.421875 C 111.691406 688.328125 114.046875 690.6875 116.957031 690.6875 C 119.863281 690.6875 122.222656 688.328125 122.222656 685.421875 C 122.222656 682.511719 119.863281 680.15625 116.957031 680.15625 Z M 648.550781 680.597656 C 645.640625 680.597656 643.28125 682.953125 643.28125 685.863281 C 643.28125 688.769531 645.640625 691.128906 648.550781 691.128906 C 651.457031 691.128906 653.816406 688.769531 653.816406 685.863281 C 653.816406 682.953125 651.457031 680.597656 648.550781 680.597656 Z M 637.027344 698.183594 C 634.121094 698.183594 631.761719 700.542969 631.761719 703.453125 C 631.761719 706.359375 634.121094 708.71875 637.027344 708.71875 C 639.9375 708.71875 642.292969 706.359375 642.292969 703.453125 C 642.292969 700.542969 639.9375 698.183594 637.027344 698.183594 Z M 113.726562 700.96875 C 110.816406 700.96875 108.457031 703.328125 108.457031 706.238281 C 108.457031 709.144531 110.816406 711.503906 113.726562 711.503906 C 116.632812 711.503906 118.992188 709.144531 118.992188 706.238281 C 118.992188 703.328125 116.632812 700.96875 113.726562 700.96875 Z M 622.890625 713.722656 C 619.984375 713.722656 617.625 716.082031 617.625 718.988281 C 617.625 721.898438 619.984375 724.253906 622.890625 724.253906 C 625.800781 724.253906 628.160156 721.898438 628.160156 718.988281 C 628.160156 716.082031 625.800781 713.722656 622.890625 713.722656 Z M 110.699219 721.816406 C 107.792969 721.816406 105.433594 724.175781 105.433594 727.082031 C 105.433594 729.992188 107.792969 732.347656 110.699219 732.347656 C 113.609375 732.347656 115.964844 729.992188 115.964844 727.082031 C 115.964844 724.175781 113.609375 721.816406 110.699219 721.816406 Z M 607.136719 727.652344 C 604.226562 727.652344 601.867188 730.011719 601.867188 732.917969 C 601.867188 735.828125 604.226562 738.1875 607.136719 738.1875 C 610.042969 738.1875 612.402344 735.828125 612.402344 732.917969 C 612.402344 730.011719 610.042969 727.652344 607.136719 727.652344 Z M 443.453125 736.84375 C 440.542969 736.84375 438.1875 739.203125 438.1875 742.113281 C 438.1875 745.019531 440.542969 747.378906 443.453125 747.378906 C 446.359375 747.378906 448.71875 745.019531 448.71875 742.113281 C 448.71875 739.203125 446.359375 736.84375 443.453125 736.84375 Z M 422.398438 737.136719 C 419.492188 737.136719 417.132812 739.496094 417.132812 742.402344 C 417.132812 745.3125 419.492188 747.667969 422.398438 747.667969 C 425.308594 747.667969 427.664062 745.3125 427.664062 742.402344 C 427.664062 739.496094 425.308594 737.136719 422.398438 737.136719 Z M 464.484375 738 C 461.574219 738 459.214844 740.359375 459.214844 743.269531 C 459.214844 746.175781 461.574219 748.535156 464.484375 748.535156 C 467.390625 748.535156 469.75 746.175781 469.75 743.269531 C 469.75 740.359375 467.390625 738 464.484375 738 Z M 589.046875 738.367188 C 586.136719 738.367188 583.78125 740.726562 583.78125 743.632812 C 583.78125 746.542969 586.136719 748.902344 589.046875 748.902344 C 591.957031 748.902344 594.3125 746.542969 594.3125 743.632812 C 594.3125 740.726562 591.957031 738.367188 589.046875 738.367188 Z M 485.460938 739.921875 C 482.550781 739.921875 480.191406 742.28125 480.191406 745.1875 C 480.191406 748.097656 482.550781 750.453125 485.460938 750.453125 C 488.367188 750.453125 490.726562 748.097656 490.726562 745.1875 C 490.726562 742.28125 488.367188 739.921875 485.460938 739.921875 Z M 401.605469 740.390625 C 398.699219 740.390625 396.339844 742.75 396.339844 745.65625 C 396.339844 748.566406 398.699219 750.921875 401.605469 750.921875 C 404.515625 750.921875 406.871094 748.566406 406.871094 745.65625 C 406.871094 742.75 404.515625 740.390625 401.605469 740.390625 Z M 506.386719 742.332031 C 503.476562 742.332031 501.117188 744.691406 501.117188 747.597656 C 501.117188 750.507812 503.476562 752.863281 506.386719 752.863281 C 509.292969 752.863281 511.652344 750.507812 511.652344 747.597656 C 511.652344 744.691406 509.292969 742.332031 506.386719 742.332031 Z M 108.078125 742.714844 C 105.167969 742.714844 102.8125 745.074219 102.8125 747.980469 C 102.8125 750.890625 105.167969 753.25 108.078125 753.25 C 110.988281 753.25 113.34375 750.890625 113.34375 747.980469 C 113.34375 745.074219 110.988281 742.714844 108.078125 742.714844 Z M 380.9375 744.460938 C 378.03125 744.460938 375.671875 746.820312 375.671875 749.726562 C 375.671875 752.636719 378.03125 754.996094 380.9375 754.996094 C 383.847656 754.996094 386.203125 752.636719 386.203125 749.726562 C 386.203125 746.820312 383.847656 744.460938 380.9375 744.460938 Z M 569.078125 744.902344 C 566.167969 744.902344 563.808594 747.257812 563.808594 750.167969 C 563.808594 753.078125 566.167969 755.433594 569.078125 755.433594 C 571.984375 755.433594 574.34375 753.078125 574.34375 750.167969 C 574.34375 747.257812 571.984375 744.902344 569.078125 744.902344 Z M 527.269531 745.089844 C 524.359375 745.089844 522.003906 747.449219 522.003906 750.355469 C 522.003906 753.265625 524.359375 755.621094 527.269531 755.621094 C 530.175781 755.621094 532.535156 753.265625 532.535156 750.355469 C 532.535156 747.449219 530.175781 745.089844 527.269531 745.089844 Z M 548.171875 747.300781 C 545.265625 747.300781 542.90625 749.65625 542.90625 752.566406 C 542.90625 755.472656 545.265625 757.832031 548.171875 757.832031 C 551.082031 757.832031 553.441406 755.472656 553.441406 752.566406 C 553.441406 749.65625 551.082031 747.300781 548.171875 747.300781 Z M 360.714844 750.316406 C 357.804688 750.316406 355.449219 752.671875 355.449219 755.582031 C 355.449219 758.488281 357.804688 760.847656 360.714844 760.847656 C 363.621094 760.847656 365.980469 758.488281 365.980469 755.582031 C 365.980469 752.671875 363.621094 750.316406 360.714844 750.316406 Z M 341.335938 758.492188 C 338.425781 758.492188 336.070312 760.847656 336.070312 763.757812 C 336.070312 766.664062 338.425781 769.023438 341.335938 769.023438 C 344.242188 769.023438 346.601562 766.664062 346.601562 763.757812 C 346.601562 760.847656 344.242188 758.492188 341.335938 758.492188 Z M 107.695312 763.566406 C 104.789062 763.566406 102.429688 765.921875 102.429688 768.832031 C 102.429688 771.738281 104.789062 774.097656 107.695312 774.097656 C 110.605469 774.097656 112.960938 771.738281 112.960938 768.832031 C 112.960938 765.921875 110.605469 763.566406 107.695312 763.566406 Z M 322.195312 767.285156 C 319.285156 767.285156 316.925781 769.640625 316.925781 772.550781 C 316.925781 775.460938 319.285156 777.816406 322.195312 777.816406 C 325.101562 777.816406 327.460938 775.460938 327.460938 772.550781 C 327.460938 769.640625 325.101562 767.285156 322.195312 767.285156 Z M 303.015625 775.996094 C 300.105469 775.996094 297.75 778.355469 297.75 781.261719 C 297.75 784.171875 300.105469 786.527344 303.015625 786.527344 C 305.921875 786.527344 308.28125 784.171875 308.28125 781.261719 C 308.28125 778.355469 305.921875 775.996094 303.015625 775.996094 Z M 112.613281 783.894531 C 109.707031 783.894531 107.347656 786.253906 107.347656 789.160156 C 107.347656 792.070312 109.707031 794.425781 112.613281 794.425781 C 115.523438 794.425781 117.878906 792.070312 117.878906 789.160156 C 117.878906 786.253906 115.523438 783.894531 112.613281 783.894531 Z M 283.785156 784.597656 C 280.875 784.597656 278.519531 786.953125 278.519531 789.863281 C 278.519531 792.769531 280.875 795.128906 283.785156 795.128906 C 286.695312 795.128906 289.050781 792.769531 289.050781 789.863281 C 289.050781 786.953125 286.695312 784.597656 283.785156 784.597656 Z M 264.484375 793.035156 C 261.578125 793.035156 259.21875 795.394531 259.21875 798.300781 C 259.21875 801.210938 261.578125 803.570312 264.484375 803.570312 C 267.394531 803.570312 269.753906 801.210938 269.753906 798.300781 C 269.753906 795.394531 267.394531 793.035156 264.484375 793.035156 Z M 124.894531 800.828125 C 121.984375 800.828125 119.625 803.183594 119.625 806.09375 C 119.625 809 121.984375 811.359375 124.894531 811.359375 C 127.800781 811.359375 130.160156 809 130.160156 806.09375 C 130.160156 803.183594 127.800781 800.828125 124.894531 800.828125 Z M 245.074219 801.214844 C 242.164062 801.214844 239.808594 803.574219 239.808594 806.480469 C 239.808594 809.390625 242.164062 811.746094 245.074219 811.746094 C 247.984375 811.746094 250.339844 809.390625 250.339844 806.480469 C 250.339844 803.574219 247.984375 801.214844 245.074219 801.214844 Z M 225.4375 808.832031 C 222.527344 808.832031 220.171875 811.191406 220.171875 814.097656 C 220.171875 817.007812 222.527344 819.367188 225.4375 819.367188 C 228.347656 819.367188 230.703125 817.007812 230.703125 814.097656 C 230.703125 811.191406 228.347656 808.832031 225.4375 808.832031 Z M 142.640625 811.902344 C 139.734375 811.902344 137.375 814.261719 137.375 817.171875 C 137.375 820.078125 139.734375 822.4375 142.640625 822.4375 C 145.550781 822.4375 147.90625 820.078125 147.90625 817.171875 C 147.90625 814.261719 145.550781 811.902344 142.640625 811.902344 Z M 205.03125 813.621094 C 202.125 813.621094 199.765625 815.980469 199.765625 818.890625 C 199.765625 821.796875 202.125 824.15625 205.03125 824.15625 C 207.941406 824.15625 210.300781 821.796875 210.300781 818.890625 C 210.300781 815.980469 207.941406 813.621094 205.03125 813.621094 Z M 163.128906 816.445312 C 160.21875 816.445312 157.863281 818.804688 157.863281 821.714844 C 157.863281 824.621094 160.21875 826.980469 163.128906 826.980469 C 166.035156 826.980469 168.394531 824.621094 168.394531 821.714844 C 168.394531 818.804688 166.035156 816.445312 163.128906 816.445312 Z M 184.164062 816.464844 C 181.257812 816.464844 178.898438 818.824219 178.898438 821.730469 C 178.898438 824.640625 181.257812 826.996094 184.164062 826.996094 C 187.074219 826.996094 189.429688 824.640625 189.429688 821.730469 C 189.429688 818.824219 187.074219 816.464844 184.164062 816.464844 Z M 184.164062 816.464844 " fill-opacity="1" fill-rule="nonzero"/></g><path fill="#295168" d="M 360.285156 219.277344 L 399.390625 219.277344 L 399.390625 287.707031 L 360.285156 287.707031 Z M 360.285156 219.277344 " fill-opacity="1" fill-rule="nonzero"/><path fill="#5cb3e6" d="M 578.769531 277.929688 L 180.90625 277.929688 C 171.765625 277.929688 164.136719 284.898438 163.308594 294.003906 L 145.21875 493 L 614.457031 493 L 596.367188 294.003906 C 595.539062 284.898438 587.910156 277.929688 578.769531 277.929688 Z M 578.769531 277.929688 " fill-opacity="1" fill-rule="nonzero"/><path fill="#478bb2" d="M 618.476562 483.222656 L 141.199219 483.222656 C 132.621094 483.222656 125.664062 490.179688 125.664062 498.757812 L 125.664062 532.105469 L 634.011719 532.105469 L 634.011719 498.757812 C 634.011719 490.179688 627.054688 483.222656 618.476562 483.222656 Z M 618.476562 483.222656 " fill-opacity="1" fill-rule="nonzero"/><g clip-path="url(#fe6d57ab9c)"><path fill="#295168" d="M 174.542969 717.84375 L 135.441406 717.84375 L 135.441406 668.964844 L 194.097656 668.964844 Z M 174.542969 717.84375 " fill-opacity="1" fill-rule="nonzero"/></g><g clip-path="url(#7a4495d0de)"><path fill="#295168" d="M 585.132812 717.84375 L 624.234375 717.84375 L 624.234375 668.964844 L 565.578125 668.964844 Z M 585.132812 717.84375 " fill-opacity="1" fill-rule="nonzero"/></g><g clip-path="url(#1e88f268cd)"><path fill="#5cb3e6" d="M 651.117188 678.742188 L 108.558594 678.742188 C 101.808594 678.742188 96.339844 673.269531 96.339844 666.523438 L 96.339844 534.546875 C 96.339844 527.796875 101.808594 522.328125 108.558594 522.328125 L 651.117188 522.328125 C 657.867188 522.328125 663.339844 527.796875 663.339844 534.546875 L 663.339844 666.523438 C 663.339844 673.269531 657.867188 678.742188 651.117188 678.742188 Z M 651.117188 678.742188 " fill-opacity="1" fill-rule="nonzero"/></g><g clip-path="url(#fb8ae62597)"><path fill="#5cb3e6" d="M 492.976562 229.050781 L 266.699219 229.050781 C 258.996094 229.050781 252.75 222.808594 252.75 215.105469 L 252.75 164.792969 C 252.75 157.089844 258.996094 150.84375 266.699219 150.84375 L 492.976562 150.84375 C 500.679688 150.84375 506.925781 157.089844 506.925781 164.792969 L 506.925781 215.105469 C 506.925781 222.808594 500.679688 229.050781 492.976562 229.050781 Z M 492.976562 229.050781 " fill-opacity="1" fill-rule="nonzero"/></g><path fill="#295168" d="M 340.734375 453.898438 L 184.320312 453.898438 C 178.921875 453.898438 174.542969 449.519531 174.542969 444.121094 C 174.542969 438.722656 178.921875 434.34375 184.320312 434.34375 L 340.734375 434.34375 C 346.132812 434.34375 350.511719 438.722656 350.511719 444.121094 C 350.511719 449.519531 346.132812 453.898438 340.734375 453.898438 Z M 340.734375 453.898438 " fill-opacity="1" fill-rule="nonzero"/><path fill="#f2d061" d="M 321.183594 444.121094 L 203.871094 444.121094 L 203.871094 258.378906 L 223.425781 277.929688 L 242.976562 258.378906 L 262.527344 277.929688 L 282.078125 258.378906 L 301.632812 277.929688 L 321.183594 258.378906 Z M 321.183594 444.121094 " fill-opacity="1" fill-rule="nonzero"/><path fill="#f2d061" d="M 409.164062 307.257812 L 438.492188 307.257812 L 438.492188 336.585938 L 409.164062 336.585938 Z M 409.164062 307.257812 " fill-opacity="1" fill-rule="nonzero"/><path fill="#f2d061" d="M 409.164062 365.914062 L 438.492188 365.914062 L 438.492188 395.242188 L 409.164062 395.242188 Z M 409.164062 365.914062 " fill-opacity="1" fill-rule="nonzero"/><path fill="#f2d061" d="M 409.164062 424.570312 L 438.492188 424.570312 L 438.492188 453.898438 L 409.164062 453.898438 Z M 409.164062 424.570312 " fill-opacity="1" fill-rule="nonzero"/><path fill="#f2d061" d="M 467.820312 307.257812 L 497.148438 307.257812 L 497.148438 336.585938 L 467.820312 336.585938 Z M 467.820312 307.257812 " fill-opacity="1" fill-rule="nonzero"/><path fill="#f2d061" d="M 467.820312 365.914062 L 497.148438 365.914062 L 497.148438 395.242188 L 467.820312 395.242188 Z M 467.820312 365.914062 " fill-opacity="1" fill-rule="nonzero"/><path fill="#f2d061" d="M 467.820312 424.570312 L 497.148438 424.570312 L 497.148438 453.898438 L 467.820312 453.898438 Z M 467.820312 424.570312 " fill-opacity="1" fill-rule="nonzero"/><path fill="#f2d061" d="M 526.476562 307.257812 L 555.804688 307.257812 L 555.804688 336.585938 L 526.476562 336.585938 Z M 526.476562 307.257812 " fill-opacity="1" fill-rule="nonzero"/><path fill="#f2d061" d="M 526.476562 365.914062 L 555.804688 365.914062 L 555.804688 395.242188 L 526.476562 395.242188 Z M 526.476562 365.914062 " fill-opacity="1" fill-rule="nonzero"/><path fill="#f2d061" d="M 526.476562 424.570312 L 555.804688 424.570312 L 555.804688 453.898438 L 526.476562 453.898438 Z M 526.476562 424.570312 " fill-opacity="1" fill-rule="nonzero"/><path fill="#295168" d="M 125.664062 551.65625 L 634.011719 551.65625 L 634.011719 649.414062 L 125.664062 649.414062 Z M 125.664062 551.65625 " fill-opacity="1" fill-rule="nonzero"/><path fill="#f2d061" d="M 427.59375 620.085938 L 332.082031 620.085938 C 326.0625 620.085938 321.183594 615.207031 321.183594 609.1875 L 321.183594 580.984375 L 438.496094 580.984375 L 438.496094 609.1875 C 438.492188 615.207031 433.613281 620.085938 427.59375 620.085938 Z M 427.59375 620.085938 " fill-opacity="1" fill-rule="nonzero"/><path fill="#e65c79" d="M 291.855469 326.8125 L 252.75 326.8125 C 247.351562 326.8125 242.976562 322.433594 242.976562 317.035156 C 242.976562 311.636719 247.351562 307.257812 252.75 307.257812 L 291.855469 307.257812 C 297.253906 307.257812 301.632812 311.636719 301.632812 317.035156 C 301.632812 322.433594 297.253906 326.8125 291.855469 326.8125 Z M 291.855469 326.8125 " fill-opacity="1" fill-rule="nonzero"/><path fill="#e65c79" d="M 291.855469 356.136719 L 233.199219 356.136719 C 227.800781 356.136719 223.425781 351.761719 223.425781 346.363281 C 223.425781 340.964844 227.800781 336.585938 233.199219 336.585938 L 291.855469 336.585938 C 297.253906 336.585938 301.632812 340.964844 301.632812 346.363281 C 301.632812 351.761719 297.253906 356.136719 291.855469 356.136719 Z M 291.855469 356.136719 " fill-opacity="1" fill-rule="nonzero"/><path fill="#e65c79" d="M 291.855469 385.464844 L 233.199219 385.464844 C 227.800781 385.464844 223.425781 381.089844 223.425781 375.691406 C 223.425781 370.292969 227.800781 365.914062 233.199219 365.914062 L 291.855469 365.914062 C 297.253906 365.914062 301.632812 370.292969 301.632812 375.691406 C 301.632812 381.089844 297.253906 385.464844 291.855469 385.464844 Z M 291.855469 385.464844 " fill-opacity="1" fill-rule="nonzero"/><path fill="#e65c79" d="M 291.855469 414.792969 L 233.199219 414.792969 C 227.800781 414.792969 223.425781 410.417969 223.425781 405.015625 C 223.425781 399.617188 227.800781 395.242188 233.199219 395.242188 L 291.855469 395.242188 C 297.253906 395.242188 301.632812 399.617188 301.632812 405.015625 C 301.632812 410.417969 297.253906 414.792969 291.855469 414.792969 Z M 291.855469 414.792969 " fill-opacity="1" fill-rule="nonzero"/><path fill="#973d50" d="M 467.84375 209.5 C 462.445312 209.5 458.0625 205.125 458.0625 199.722656 C 458.0625 194.324219 462.433594 189.949219 467.832031 189.949219 L 467.84375 189.949219 C 473.242188 189.949219 477.621094 194.324219 477.621094 199.722656 C 477.621094 205.125 473.242188 209.5 467.84375 209.5 Z M 467.84375 209.5 " fill-opacity="1" fill-rule="nonzero"/><path fill="#973d50" d="M 438.519531 209.5 C 433.117188 209.5 428.734375 205.125 428.734375 199.722656 C 428.734375 194.324219 433.105469 189.949219 438.503906 189.949219 L 438.519531 189.949219 C 443.917969 189.949219 448.292969 194.324219 448.292969 199.722656 C 448.292969 205.125 443.917969 209.5 438.519531 209.5 Z M 438.519531 209.5 " fill-opacity="1" fill-rule="nonzero"/><path fill="#973d50" d="M 409.191406 209.5 C 403.792969 209.5 399.40625 205.125 399.40625 199.722656 C 399.40625 194.324219 403.777344 189.949219 409.179688 189.949219 L 409.191406 189.949219 C 414.589844 189.949219 418.964844 194.324219 418.964844 199.722656 C 418.964844 205.125 414.589844 209.5 409.191406 209.5 Z M 409.191406 209.5 " fill-opacity="1" fill-rule="nonzero"/></svg>