<svg xmlns="http://www.w3.org/2000/svg" xmlns:xlink="http://www.w3.org/1999/xlink" width="1080" zoomAndPan="magnify" viewBox="0 0 810 809.999993" height="1080" preserveAspectRatio="xMidYMid meet" version="1.0"><defs><clipPath id="d1b09644f6"><path d="M 93.710938 -10.5625 L 828.109375 103.820312 L 716.496094 820.429688 L -17.898438 706.050781 Z M 93.710938 -10.5625 " clip-rule="nonzero"/></clipPath><clipPath id="5dd7f30de2"><path d="M 65 63 L 766 63 L 766 774 L 65 774 Z M 65 63 " clip-rule="nonzero"/></clipPath><clipPath id="abbd84d486"><path d="M 93.710938 -10.5625 L 828.109375 103.820312 L 716.496094 820.429688 L -17.898438 706.050781 Z M 93.710938 -10.5625 " clip-rule="nonzero"/></clipPath><clipPath id="c6ba6aace7"><path d="M 827.910156 103.789062 L 93.515625 -10.59375 L -18.09375 706.019531 L 716.300781 820.398438 Z M 827.910156 103.789062 " clip-rule="nonzero"/></clipPath><clipPath id="5546a62327"><path d="M 33 77 L 789 77 L 789 795 L 33 795 Z M 33 77 " clip-rule="nonzero"/></clipPath><clipPath id="b5b6188e1f"><path d="M 93.710938 -10.5625 L 828.109375 103.820312 L 716.496094 820.429688 L -17.898438 706.050781 Z M 93.710938 -10.5625 " clip-rule="nonzero"/></clipPath><clipPath id="3cf8427000"><path d="M 827.910156 103.789062 L 93.515625 -10.59375 L -18.09375 706.019531 L 716.300781 820.398438 Z M 827.910156 103.789062 " clip-rule="nonzero"/></clipPath><clipPath id="97f09b157a"><rect x="0" width="810" y="0" height="810"/></clipPath><clipPath id="937701ed4a"><path d="M 125.730469 319.167969 L 684.480469 319.167969 L 684.480469 688.167969 L 125.730469 688.167969 Z M 125.730469 319.167969 " clip-rule="nonzero"/></clipPath></defs><g clip-path="url(#d1b09644f6)"><g transform="matrix(1, 0, 0, 1, 0, 0.000000000000039746)"><g clip-path="url(#97f09b157a)"><g clip-path="url(#5dd7f30de2)"><g clip-path="url(#abbd84d486)"><g clip-path="url(#c6ba6aace7)"><path fill="#e7f7ff" d="M 570.949219 64.839844 L 572.273438 65.050781 C 621.601562 72.074219 661.703125 103.1875 692.574219 158.398438 C 725.144531 228.664062 745.480469 278.089844 753.574219 306.675781 C 764.726562 340.136719 768.207031 371.234375 764.007812 399.96875 C 757.390625 428.953125 750.609375 450.710938 743.667969 465.246094 C 712.417969 512.15625 694.148438 541.136719 688.847656 552.179688 C 664.320312 629.070312 649.3125 674.625 643.828125 688.847656 C 642.972656 692.5 635.683594 704.515625 621.960938 724.890625 C 607.796875 742.539062 593.441406 754.175781 578.894531 759.8125 C 550.496094 771.664062 522.128906 775.839844 493.804688 772.339844 C 483.898438 770.769531 474.347656 767.984375 465.152344 763.984375 L 331.519531 685.332031 C 269.839844 664.832031 212.765625 643.660156 160.300781 621.820312 C 136.351562 609.269531 115.726562 590.847656 98.433594 566.546875 C 80.714844 540.746094 69.804688 502.839844 65.707031 452.835938 C 64.207031 440.683594 70.6875 397.089844 85.140625 322.0625 L 86.152344 209.476562 C 87.894531 192.183594 93.535156 177.195312 103.078125 164.511719 C 107.851562 158.171875 113.597656 152.40625 120.320312 147.21875 C 138.832031 135.253906 151.109375 128.769531 157.152344 127.757812 C 172.117188 123.539062 186.21875 120.878906 199.449219 119.773438 C 302.230469 116.472656 364.0625 113.570312 384.945312 111.0625 C 405.015625 109.949219 450.558594 94.847656 521.574219 65.757812 C 534.75 62.804688 551.210938 62.5 570.949219 64.839844 " fill-opacity="1" fill-rule="nonzero"/></g></g></g><g clip-path="url(#5546a62327)"><g clip-path="url(#b5b6188e1f)"><g clip-path="url(#3cf8427000)"><path fill="#e7f7ff" d="M 495.625 79.648438 C 498.277344 80.058594 500.09375 82.546875 499.679688 85.199219 C 499.265625 87.855469 496.78125 89.671875 494.125 89.257812 C 491.472656 88.84375 489.65625 86.359375 490.070312 83.703125 C 490.484375 81.050781 492.96875 79.234375 495.625 79.648438 Z M 514.777344 82.882812 C 517.429688 83.296875 519.246094 85.785156 518.835938 88.4375 C 518.421875 91.089844 515.933594 92.90625 513.28125 92.492188 C 510.625 92.082031 508.8125 89.59375 509.222656 86.941406 C 509.636719 84.285156 512.125 82.46875 514.777344 82.882812 Z M 533.492188 88.132812 C 536.144531 88.546875 537.960938 91.03125 537.550781 93.6875 C 537.136719 96.339844 534.648438 98.15625 531.996094 97.742188 C 529.34375 97.328125 527.527344 94.84375 527.9375 92.191406 C 528.351562 89.535156 530.839844 87.71875 533.492188 88.132812 Z M 476.191406 79.28125 C 478.847656 79.691406 480.664062 82.179688 480.25 84.832031 C 479.835938 87.488281 477.351562 89.304688 474.695312 88.890625 C 472.042969 88.476562 470.226562 85.988281 470.640625 83.335938 C 471.050781 80.683594 473.539062 78.867188 476.191406 79.28125 Z M 550.578125 96.785156 C 553.230469 97.199219 555.046875 99.683594 554.632812 102.335938 C 554.21875 104.992188 551.734375 106.808594 549.078125 106.394531 C 546.425781 105.980469 544.609375 103.496094 545.023438 100.839844 C 545.4375 98.1875 547.921875 96.371094 550.578125 96.785156 Z M 457.15625 82.941406 C 459.8125 83.351562 461.628906 85.839844 461.214844 88.492188 C 460.800781 91.148438 458.3125 92.964844 455.660156 92.550781 C 453.007812 92.136719 451.191406 89.652344 451.605469 86.996094 C 452.015625 84.34375 454.503906 82.527344 457.15625 82.941406 Z M 405.058594 78.285156 C 407.710938 78.695312 409.527344 81.183594 409.113281 83.835938 C 408.703125 86.492188 406.214844 88.308594 403.5625 87.894531 C 400.90625 87.480469 399.089844 84.992188 399.503906 82.339844 C 399.917969 79.6875 402.402344 77.871094 405.058594 78.285156 Z M 385.644531 77.636719 C 388.296875 78.050781 390.113281 80.535156 389.699219 83.191406 C 389.289062 85.84375 386.800781 87.660156 384.148438 87.246094 C 381.492188 86.832031 379.675781 84.347656 380.089844 81.691406 C 380.503906 79.039062 382.988281 77.222656 385.644531 77.636719 Z M 566.1875 108.386719 C 568.84375 108.800781 570.660156 111.285156 570.246094 113.9375 C 569.832031 116.59375 567.347656 118.410156 564.691406 117.996094 C 562.039062 117.582031 560.222656 115.097656 560.636719 112.441406 C 561.046875 109.789062 563.535156 107.972656 566.1875 108.386719 Z M 366.199219 78.332031 C 368.855469 78.742188 370.667969 81.230469 370.257812 83.882812 C 369.84375 86.539062 367.355469 88.355469 364.703125 87.941406 C 362.050781 87.527344 360.234375 85.039062 360.644531 82.386719 C 361.058594 79.734375 363.546875 77.917969 366.199219 78.332031 Z M 346.875 80.484375 C 349.527344 80.898438 351.34375 83.382812 350.929688 86.039062 C 350.519531 88.691406 348.03125 90.507812 345.378906 90.09375 C 342.722656 89.683594 340.90625 87.195312 341.320312 84.542969 C 341.734375 81.886719 344.222656 80.070312 346.875 80.484375 Z M 581.570312 120.296875 C 584.222656 120.707031 586.039062 123.195312 585.625 125.847656 C 585.210938 128.503906 582.726562 130.320312 580.070312 129.90625 C 577.417969 129.492188 575.601562 127.003906 576.015625 124.351562 C 576.429688 121.699219 578.914062 119.882812 581.570312 120.296875 Z M 327.800781 84.199219 C 330.453125 84.609375 332.269531 87.097656 331.855469 89.75 C 331.445312 92.40625 328.957031 94.222656 326.304688 93.808594 C 323.648438 93.394531 321.832031 90.90625 322.246094 88.253906 C 322.660156 85.601562 325.148438 83.785156 327.800781 84.199219 Z M 596.839844 132.34375 C 599.492188 132.757812 601.308594 135.246094 600.894531 137.898438 C 600.480469 140.554688 597.996094 142.371094 595.34375 141.957031 C 592.6875 141.542969 590.871094 139.054688 591.285156 136.402344 C 591.699219 133.75 594.183594 131.933594 596.839844 132.34375 Z M 309.105469 89.539062 C 311.757812 89.953125 313.574219 92.441406 313.160156 95.09375 C 312.75 97.746094 310.261719 99.5625 307.609375 99.152344 C 304.953125 98.738281 303.136719 96.25 303.550781 93.597656 C 303.964844 90.941406 306.449219 89.125 309.105469 89.539062 Z M 612.039062 144.480469 C 614.695312 144.894531 616.511719 147.382812 616.097656 150.035156 C 615.683594 152.6875 613.199219 154.503906 610.542969 154.089844 C 607.890625 153.679688 606.074219 151.191406 606.488281 148.539062 C 606.902344 145.882812 609.386719 144.066406 612.039062 144.480469 Z M 290.964844 96.53125 C 293.617188 96.945312 295.433594 99.429688 295.019531 102.085938 C 294.609375 104.738281 292.121094 106.554688 289.46875 106.140625 C 286.8125 105.730469 284.996094 103.242188 285.410156 100.589844 C 285.824219 97.933594 288.3125 96.117188 290.964844 96.53125 Z M 628.058594 155.445312 C 630.710938 155.855469 632.527344 158.34375 632.113281 160.996094 C 631.699219 163.652344 629.214844 165.46875 626.5625 165.054688 C 623.90625 164.640625 622.089844 162.15625 622.503906 159.5 C 622.917969 156.847656 625.402344 155.03125 628.058594 155.445312 Z M 273.535156 105.140625 C 276.191406 105.550781 278.007812 108.039062 277.59375 110.691406 C 277.179688 113.347656 274.691406 115.164062 272.039062 114.75 C 269.386719 114.335938 267.570312 111.847656 267.984375 109.195312 C 268.394531 106.542969 270.882812 104.726562 273.535156 105.140625 Z M 644.6875 165.535156 C 647.339844 165.949219 649.15625 168.4375 648.742188 171.089844 C 648.328125 173.746094 645.84375 175.558594 643.191406 175.148438 C 640.535156 174.734375 638.71875 172.246094 639.132812 169.59375 C 639.546875 166.941406 642.03125 165.125 644.6875 165.535156 Z M 661.261719 175.71875 C 663.914062 176.132812 665.730469 178.617188 665.316406 181.273438 C 664.902344 183.925781 662.417969 185.742188 659.761719 185.328125 C 657.109375 184.914062 655.292969 182.429688 655.707031 179.777344 C 656.121094 177.121094 658.605469 175.304688 661.261719 175.71875 Z M 256.945312 115.28125 C 259.597656 115.695312 261.414062 118.183594 261.003906 120.835938 C 260.589844 123.488281 258.101562 125.304688 255.449219 124.890625 C 252.792969 124.480469 250.976562 121.992188 251.390625 119.339844 C 251.804688 116.683594 254.292969 114.867188 256.945312 115.28125 Z M 677.761719 186.019531 C 680.414062 186.433594 682.230469 188.917969 681.816406 191.574219 C 681.40625 194.226562 678.917969 196.042969 676.265625 195.628906 C 673.609375 195.21875 671.792969 192.730469 672.207031 190.078125 C 672.621094 187.421875 675.105469 185.605469 677.761719 186.019531 Z M 240.363281 124.980469 C 243.015625 125.394531 244.832031 127.878906 244.421875 130.535156 C 244.007812 133.1875 241.519531 135.003906 238.867188 134.589844 C 236.214844 134.175781 234.398438 131.691406 234.808594 129.035156 C 235.222656 126.382812 237.710938 124.566406 240.363281 124.980469 Z M 694.15625 196.492188 C 696.808594 196.902344 698.625 199.390625 698.210938 202.042969 C 697.796875 204.699219 695.3125 206.515625 692.65625 206.101562 C 690.003906 205.6875 688.1875 203.199219 688.601562 200.546875 C 689.015625 197.894531 691.5 196.078125 694.15625 196.492188 Z M 710.371094 207.234375 C 713.023438 207.648438 714.839844 210.132812 714.425781 212.789062 C 714.011719 215.441406 711.527344 217.257812 708.875 216.84375 C 706.21875 216.429688 704.402344 213.945312 704.816406 211.289062 C 705.230469 208.636719 707.714844 206.820312 710.371094 207.234375 Z M 225.980469 138.046875 C 228.636719 138.460938 230.453125 140.949219 230.039062 143.601562 C 229.625 146.253906 227.140625 148.070312 224.484375 147.660156 C 221.832031 147.246094 220.015625 144.757812 220.429688 142.105469 C 220.84375 139.449219 223.328125 137.636719 225.980469 138.046875 Z M 726.191406 218.542969 C 728.847656 218.957031 730.664062 221.445312 730.25 224.097656 C 729.835938 226.75 727.351562 228.566406 724.695312 228.152344 C 722.042969 227.742188 720.226562 225.253906 720.640625 222.601562 C 721.050781 219.945312 723.539062 218.128906 726.191406 218.542969 Z M 739.585938 232.398438 C 742.238281 232.8125 744.054688 235.296875 743.644531 237.953125 C 743.230469 240.605469 740.742188 242.421875 738.089844 242.007812 C 735.433594 241.59375 733.617188 239.109375 734.03125 236.457031 C 734.445312 233.800781 736.933594 231.984375 739.585938 232.398438 Z M 212.769531 152.324219 C 215.425781 152.734375 217.242188 155.222656 216.828125 157.875 C 216.414062 160.53125 213.925781 162.347656 211.273438 161.933594 C 208.621094 161.519531 206.804688 159.035156 207.21875 156.378906 C 207.628906 153.726562 210.117188 151.910156 212.769531 152.324219 Z M 751.84375 247.484375 C 754.5 247.898438 756.316406 250.386719 755.902344 253.039062 C 755.488281 255.691406 753.003906 257.507812 750.347656 257.09375 C 747.695312 256.683594 745.878906 254.195312 746.292969 251.542969 C 746.703125 248.886719 749.191406 247.070312 751.84375 247.484375 Z M 200.066406 167.050781 C 202.71875 167.464844 204.535156 169.953125 204.125 172.605469 C 203.710938 175.257812 201.222656 177.074219 198.570312 176.664062 C 195.917969 176.25 194.101562 173.761719 194.511719 171.109375 C 194.925781 168.457031 197.414062 166.640625 200.066406 167.050781 Z M 762.652344 263.613281 C 765.304688 264.027344 767.121094 266.511719 766.707031 269.164062 C 766.296875 271.820312 763.808594 273.636719 761.15625 273.222656 C 758.5 272.808594 756.683594 270.324219 757.097656 267.667969 C 757.511719 265.015625 759.996094 263.199219 762.652344 263.613281 Z M 187.664062 182.039062 C 190.320312 182.453125 192.136719 184.9375 191.722656 187.589844 C 191.308594 190.246094 188.824219 192.0625 186.167969 191.648438 C 183.515625 191.234375 181.699219 188.75 182.113281 186.09375 C 182.523438 183.441406 185.011719 181.625 187.664062 182.039062 Z M 771.6875 280.832031 C 774.34375 281.246094 776.160156 283.730469 775.746094 286.386719 C 775.332031 289.039062 772.84375 290.855469 770.191406 290.441406 C 767.539062 290.03125 765.722656 287.542969 766.136719 284.890625 C 766.546875 282.234375 769.035156 280.417969 771.6875 280.832031 Z M 175.472656 197.195312 C 178.125 197.605469 179.941406 200.09375 179.527344 202.746094 C 179.113281 205.402344 176.628906 207.21875 173.972656 206.804688 C 171.320312 206.390625 169.503906 203.902344 169.917969 201.25 C 170.332031 198.597656 172.816406 196.78125 175.472656 197.195312 Z M 778.550781 299 C 781.207031 299.410156 783.023438 301.898438 782.609375 304.550781 C 782.195312 307.207031 779.710938 309.023438 777.054688 308.609375 C 774.402344 308.195312 772.585938 305.707031 773 303.054688 C 773.410156 300.402344 775.898438 298.585938 778.550781 299 Z M 163.429688 212.46875 C 166.082031 212.882812 167.898438 215.371094 167.488281 218.023438 C 167.074219 220.679688 164.585938 222.496094 161.933594 222.082031 C 159.28125 221.667969 157.464844 219.179688 157.875 216.527344 C 158.289062 213.875 160.777344 212.058594 163.429688 212.46875 Z M 782.925781 317.917969 C 785.582031 318.332031 787.398438 320.816406 786.984375 323.472656 C 786.570312 326.125 784.085938 327.941406 781.429688 327.527344 C 778.777344 327.113281 776.960938 324.628906 777.375 321.976562 C 777.785156 319.320312 780.273438 317.503906 782.925781 317.917969 Z M 151.507812 227.839844 C 154.160156 228.253906 155.976562 230.742188 155.566406 233.394531 C 155.152344 236.046875 152.664062 237.863281 150.011719 237.453125 C 147.359375 237.039062 145.542969 234.550781 145.953125 231.898438 C 146.367188 229.246094 148.855469 227.429688 151.507812 227.839844 Z M 784.613281 337.261719 C 787.269531 337.675781 789.085938 340.164062 788.671875 342.816406 C 788.257812 345.472656 785.773438 347.285156 783.117188 346.875 C 780.464844 346.460938 778.648438 343.972656 779.0625 341.320312 C 779.472656 338.667969 781.960938 336.851562 784.613281 337.261719 Z M 139.683594 243.285156 C 142.335938 243.699219 144.152344 246.1875 143.738281 248.839844 C 143.328125 251.492188 140.839844 253.308594 138.1875 252.894531 C 135.53125 252.484375 133.714844 249.996094 134.128906 247.34375 C 134.542969 244.6875 137.027344 242.871094 139.683594 243.285156 Z M 783.613281 356.664062 C 786.265625 357.078125 788.082031 359.566406 787.671875 362.21875 C 787.257812 364.871094 784.769531 366.6875 782.117188 366.277344 C 779.464844 365.863281 777.648438 363.375 778.058594 360.722656 C 778.472656 358.066406 780.960938 356.253906 783.613281 356.664062 Z M 125.867188 256.839844 C 128.519531 257.25 130.335938 259.738281 129.925781 262.390625 C 129.511719 265.046875 127.023438 266.863281 124.371094 266.449219 C 121.71875 266.035156 119.902344 263.550781 120.3125 260.894531 C 120.726562 258.242188 123.214844 256.425781 125.867188 256.839844 Z M 110.820312 269.164062 C 113.472656 269.578125 115.289062 272.0625 114.875 274.71875 C 114.464844 277.371094 111.976562 279.1875 109.324219 278.773438 C 106.667969 278.359375 104.851562 275.875 105.265625 273.222656 C 105.679688 270.566406 108.167969 268.75 110.820312 269.164062 Z M 780.113281 375.773438 C 782.765625 376.183594 784.582031 378.671875 784.171875 381.324219 C 783.757812 383.980469 781.269531 385.796875 778.617188 385.382812 C 775.964844 384.96875 774.148438 382.480469 774.558594 379.828125 C 774.972656 377.175781 777.460938 375.359375 780.113281 375.773438 Z M 95.601562 281.28125 C 98.257812 281.695312 100.074219 284.183594 99.660156 286.835938 C 99.246094 289.488281 96.761719 291.304688 94.105469 290.890625 C 91.453125 290.480469 89.636719 287.992188 90.050781 285.339844 C 90.464844 282.683594 92.949219 280.867188 95.601562 281.28125 Z M 774.425781 394.347656 C 777.078125 394.761719 778.894531 397.246094 778.480469 399.902344 C 778.066406 402.554688 775.582031 404.371094 772.929688 403.957031 C 770.273438 403.542969 768.457031 401.058594 768.871094 398.40625 C 769.285156 395.75 771.769531 393.933594 774.425781 394.347656 Z M 80.304688 293.292969 C 82.957031 293.707031 84.773438 296.195312 84.359375 298.847656 C 83.945312 301.503906 81.460938 303.320312 78.808594 302.90625 C 76.152344 302.492188 74.335938 300.003906 74.75 297.351562 C 75.164062 294.699219 77.648438 292.882812 80.304688 293.292969 Z M 766.894531 412.261719 C 769.546875 412.675781 771.363281 415.160156 770.953125 417.816406 C 770.539062 420.46875 768.050781 422.285156 765.398438 421.871094 C 762.746094 421.457031 760.929688 418.972656 761.339844 416.316406 C 761.753906 413.664062 764.242188 411.847656 766.894531 412.261719 Z M 65.605469 305.933594 C 68.257812 306.34375 70.074219 308.832031 69.660156 311.484375 C 69.246094 314.140625 66.761719 315.957031 64.105469 315.542969 C 61.453125 315.128906 59.636719 312.644531 60.050781 309.988281 C 60.464844 307.335938 62.949219 305.519531 65.605469 305.933594 Z M 758.269531 429.761719 C 760.925781 430.175781 762.742188 432.660156 762.328125 435.316406 C 761.914062 437.96875 759.429688 439.785156 756.773438 439.371094 C 754.121094 438.960938 752.304688 436.472656 752.71875 433.820312 C 753.132812 431.164062 755.617188 429.347656 758.269531 429.761719 Z M 54.699219 321.992188 C 57.355469 322.40625 59.171875 324.894531 58.757812 327.546875 C 58.34375 330.199219 55.855469 332.015625 53.203125 331.601562 C 50.550781 331.191406 48.734375 328.703125 49.148438 326.050781 C 49.558594 323.394531 52.046875 321.578125 54.699219 321.992188 Z M 748.375 446.5 C 751.03125 446.914062 752.847656 449.398438 752.433594 452.050781 C 752.019531 454.707031 749.535156 456.523438 746.878906 456.109375 C 744.226562 455.695312 742.410156 453.210938 742.824219 450.554688 C 743.238281 447.902344 745.722656 446.085938 748.375 446.5 Z M 46.75 339.75 C 49.402344 340.164062 51.21875 342.652344 50.804688 345.304688 C 50.394531 347.957031 47.90625 349.773438 45.253906 349.363281 C 42.597656 348.949219 40.78125 346.460938 41.195312 343.808594 C 41.609375 341.15625 44.097656 339.339844 46.75 339.75 Z M 737.0625 462.3125 C 739.714844 462.726562 741.53125 465.210938 741.117188 467.867188 C 740.707031 470.519531 738.21875 472.335938 735.566406 471.921875 C 732.910156 471.507812 731.09375 469.023438 731.507812 466.371094 C 731.921875 463.714844 734.410156 461.898438 737.0625 462.3125 Z M 41.179688 358.375 C 43.832031 358.789062 45.648438 361.273438 45.234375 363.929688 C 44.820312 366.582031 42.335938 368.398438 39.679688 367.984375 C 37.027344 367.574219 35.210938 365.085938 35.625 362.433594 C 36.039062 359.777344 38.523438 357.960938 41.179688 358.375 Z M 724.714844 477.324219 C 727.367188 477.738281 729.183594 480.226562 728.773438 482.878906 C 728.359375 485.53125 725.871094 487.347656 723.21875 486.9375 C 720.5625 486.523438 718.75 484.035156 719.160156 481.382812 C 719.574219 478.726562 722.0625 476.910156 724.714844 477.324219 Z M 38.867188 377.648438 C 41.519531 378.0625 43.335938 380.546875 42.921875 383.199219 C 42.511719 385.855469 40.023438 387.671875 37.371094 387.257812 C 34.714844 386.84375 32.898438 384.359375 33.3125 381.703125 C 33.726562 379.050781 36.214844 377.234375 38.867188 377.648438 Z M 710.703125 490.808594 C 713.359375 491.222656 715.175781 493.710938 714.761719 496.363281 C 714.347656 499.015625 711.859375 500.832031 709.207031 500.421875 C 706.554688 500.007812 704.738281 497.519531 705.152344 494.867188 C 705.5625 492.214844 708.050781 490.398438 710.703125 490.808594 Z M 41.285156 396.875 C 43.9375 397.289062 45.753906 399.777344 45.339844 402.429688 C 44.925781 405.085938 42.441406 406.902344 39.789062 406.488281 C 37.132812 406.074219 35.316406 403.585938 35.730469 400.933594 C 36.144531 398.28125 38.628906 396.464844 41.285156 396.875 Z M 696.035156 503.582031 C 698.6875 503.996094 700.503906 506.484375 700.09375 509.136719 C 699.679688 511.792969 697.191406 513.605469 694.539062 513.195312 C 691.886719 512.78125 690.070312 510.292969 690.480469 507.640625 C 690.894531 504.988281 693.382812 503.171875 696.035156 503.582031 Z M 50.023438 414.074219 C 52.679688 414.488281 54.496094 416.972656 54.082031 419.628906 C 53.667969 422.28125 51.179688 424.097656 48.527344 423.683594 C 45.875 423.269531 44.058594 420.785156 44.472656 418.128906 C 44.882812 415.476562 47.371094 413.660156 50.023438 414.074219 Z M 681.101562 516.046875 C 683.753906 516.460938 685.570312 518.949219 685.160156 521.601562 C 684.746094 524.253906 682.257812 526.070312 679.605469 525.660156 C 676.953125 525.246094 675.136719 522.757812 675.546875 520.105469 C 675.960938 517.449219 678.449219 515.636719 681.101562 516.046875 Z M 60.992188 430.136719 C 63.648438 430.550781 65.464844 433.039062 65.050781 435.691406 C 64.636719 438.34375 62.148438 440.160156 59.496094 439.746094 C 56.84375 439.335938 55.027344 436.847656 55.441406 434.195312 C 55.851562 431.539062 58.339844 429.722656 60.992188 430.136719 Z M 666.015625 528.328125 C 668.667969 528.742188 670.484375 531.226562 670.074219 533.878906 C 669.660156 536.535156 667.171875 538.351562 664.519531 537.9375 C 661.863281 537.523438 660.046875 535.039062 660.460938 532.382812 C 660.875 529.730469 663.363281 527.914062 666.015625 528.328125 Z M 71.757812 446.339844 C 74.410156 446.753906 76.226562 449.238281 75.8125 451.894531 C 75.402344 454.546875 72.914062 456.363281 70.261719 455.949219 C 67.605469 455.535156 65.789062 453.050781 66.203125 450.398438 C 66.617188 447.742188 69.105469 445.925781 71.757812 446.339844 Z M 651.257812 540.976562 C 653.910156 541.386719 655.726562 543.875 655.316406 546.527344 C 654.902344 549.183594 652.414062 551 649.761719 550.585938 C 647.105469 550.171875 645.292969 547.683594 645.703125 545.03125 C 646.117188 542.378906 648.605469 540.5625 651.257812 540.976562 Z M 82.175781 462.765625 C 84.828125 463.179688 86.644531 465.664062 86.230469 468.320312 C 85.820312 470.972656 83.332031 472.789062 80.679688 472.375 C 78.023438 471.960938 76.207031 469.476562 76.621094 466.824219 C 77.035156 464.167969 79.523438 462.351562 82.175781 462.765625 Z M 638.867188 555.949219 C 641.519531 556.363281 643.335938 558.847656 642.921875 561.503906 C 642.511719 564.15625 640.023438 565.972656 637.371094 565.558594 C 634.714844 565.144531 632.898438 562.660156 633.3125 560.003906 C 633.726562 557.351562 636.214844 555.535156 638.867188 555.949219 Z M 91.785156 479.671875 C 94.4375 480.085938 96.253906 482.570312 95.84375 485.226562 C 95.429688 487.878906 92.941406 489.695312 90.289062 489.28125 C 87.636719 488.867188 85.820312 486.382812 86.230469 483.726562 C 86.644531 481.074219 89.132812 479.257812 91.785156 479.671875 Z M 628.839844 572.578125 C 631.496094 572.992188 633.3125 575.476562 632.898438 578.132812 C 632.484375 580.785156 630 582.601562 627.34375 582.1875 C 624.691406 581.773438 622.875 579.289062 623.289062 576.632812 C 623.703125 573.980469 626.1875 572.164062 628.839844 572.578125 Z M 97.753906 498.117188 C 100.40625 498.527344 102.222656 501.015625 101.808594 503.667969 C 101.398438 506.324219 98.910156 508.140625 96.257812 507.726562 C 93.601562 507.3125 91.785156 504.828125 92.199219 502.171875 C 92.613281 499.519531 95.097656 497.703125 97.753906 498.117188 Z M 620.976562 590.359375 C 623.628906 590.773438 625.445312 593.261719 625.03125 595.914062 C 624.617188 598.566406 622.132812 600.382812 619.480469 599.972656 C 616.824219 599.558594 615.007812 597.070312 615.421875 594.417969 C 615.835938 591.765625 618.320312 589.949219 620.976562 590.359375 Z M 102.640625 516.941406 C 105.296875 517.355469 107.113281 519.84375 106.699219 522.496094 C 106.285156 525.152344 103.796875 526.96875 101.144531 526.554688 C 98.492188 526.140625 96.675781 523.652344 97.089844 521 C 97.5 518.347656 99.988281 516.53125 102.640625 516.941406 Z M 614.902344 608.828125 C 617.558594 609.242188 619.375 611.726562 618.960938 614.382812 C 618.546875 617.035156 616.0625 618.851562 613.40625 618.4375 C 610.753906 618.023438 608.9375 615.539062 609.351562 612.886719 C 609.765625 610.230469 612.25 608.414062 614.902344 608.828125 Z M 107.691406 535.726562 C 110.347656 536.140625 112.164062 538.628906 111.75 541.28125 C 111.335938 543.933594 108.851562 545.75 106.195312 545.335938 C 103.542969 544.925781 101.726562 542.4375 102.140625 539.785156 C 102.554688 537.128906 105.039062 535.3125 107.691406 535.726562 Z M 610.71875 627.8125 C 613.371094 628.226562 615.1875 630.710938 614.773438 633.367188 C 614.363281 636.019531 611.875 637.835938 609.222656 637.421875 C 606.566406 637.007812 604.75 634.523438 605.164062 631.871094 C 605.578125 629.214844 608.066406 627.398438 610.71875 627.8125 Z M 112.96875 554.449219 C 115.625 554.863281 117.441406 557.351562 117.027344 560.003906 C 116.613281 562.65625 114.125 564.472656 111.472656 564.058594 C 108.820312 563.648438 107.003906 561.160156 107.417969 558.507812 C 107.828125 555.851562 110.316406 554.035156 112.96875 554.449219 Z M 609.8125 647.1875 C 612.464844 647.601562 614.28125 650.089844 613.867188 652.742188 C 613.457031 655.398438 610.96875 657.210938 608.316406 656.800781 C 605.660156 656.386719 603.84375 653.898438 604.257812 651.246094 C 604.671875 648.59375 607.15625 646.777344 609.8125 647.1875 Z M 118.585938 573.074219 C 121.242188 573.484375 123.058594 575.972656 122.644531 578.625 C 122.230469 581.28125 119.742188 583.097656 117.089844 582.683594 C 114.4375 582.269531 112.621094 579.785156 113.035156 577.128906 C 113.445312 574.476562 115.933594 572.660156 118.585938 573.074219 Z M 609.925781 666.640625 C 612.578125 667.054688 614.394531 669.539062 613.980469 672.195312 C 613.570312 674.847656 611.082031 676.664062 608.429688 676.25 C 605.773438 675.835938 603.957031 673.351562 604.371094 670.699219 C 604.785156 668.042969 607.269531 666.226562 609.925781 666.640625 Z M 124.816406 591.5 C 127.46875 591.910156 129.285156 594.398438 128.875 597.050781 C 128.460938 599.707031 125.972656 601.523438 123.320312 601.109375 C 120.667969 600.695312 118.851562 598.207031 119.261719 595.554688 C 119.675781 592.902344 122.164062 591.085938 124.816406 591.5 Z M 132.828125 609.183594 C 135.484375 609.597656 137.296875 612.085938 136.886719 614.738281 C 136.472656 617.390625 133.984375 619.207031 131.332031 618.792969 C 128.679688 618.382812 126.863281 615.894531 127.273438 613.242188 C 127.6875 610.585938 130.175781 608.769531 132.828125 609.183594 Z M 609.914062 686.09375 C 612.570312 686.507812 614.386719 688.992188 613.972656 691.648438 C 613.558594 694.300781 611.074219 696.117188 608.417969 695.703125 C 605.765625 695.289062 603.949219 692.804688 604.363281 690.148438 C 604.773438 687.496094 607.261719 685.679688 609.914062 686.09375 Z M 143.519531 625.371094 C 146.171875 625.785156 147.988281 628.269531 147.574219 630.925781 C 147.164062 633.578125 144.675781 635.394531 142.023438 634.980469 C 139.367188 634.566406 137.550781 632.082031 137.964844 629.425781 C 138.378906 626.773438 140.863281 624.957031 143.519531 625.371094 Z M 609.710938 705.542969 C 612.367188 705.957031 614.183594 708.445312 613.769531 711.097656 C 613.355469 713.75 610.871094 715.566406 608.214844 715.152344 C 605.5625 714.742188 603.746094 712.253906 604.160156 709.601562 C 604.570312 706.945312 607.058594 705.128906 609.710938 705.542969 Z M 155.917969 640.320312 C 158.570312 640.734375 160.386719 643.21875 159.972656 645.875 C 159.558594 648.527344 157.074219 650.34375 154.417969 649.929688 C 151.765625 649.519531 149.949219 647.03125 150.363281 644.378906 C 150.777344 641.722656 153.261719 639.90625 155.917969 640.320312 Z M 303.960938 671.96875 C 306.613281 672.382812 308.429688 674.867188 308.019531 677.523438 C 307.605469 680.175781 305.117188 681.992188 302.464844 681.578125 C 299.808594 681.164062 297.992188 678.679688 298.40625 676.027344 C 298.820312 673.371094 301.308594 671.554688 303.960938 671.96875 Z M 323.128906 675.226562 C 325.785156 675.640625 327.601562 678.125 327.1875 680.78125 C 326.773438 683.433594 324.285156 685.25 321.632812 684.835938 C 318.980469 684.421875 317.164062 681.9375 317.574219 679.285156 C 317.988281 676.628906 320.476562 674.8125 323.128906 675.226562 Z M 284.609375 670.035156 C 287.261719 670.449219 289.078125 672.933594 288.664062 675.589844 C 288.25 678.242188 285.765625 680.058594 283.109375 679.644531 C 280.457031 679.230469 278.640625 676.746094 279.054688 674.09375 C 279.46875 671.4375 281.953125 669.621094 284.609375 670.035156 Z M 170.898438 652.667969 C 173.550781 653.082031 175.367188 655.566406 174.957031 658.222656 C 174.542969 660.875 172.054688 662.691406 169.402344 662.277344 C 166.75 661.863281 164.933594 659.378906 165.34375 656.722656 C 165.757812 654.070312 168.246094 652.253906 170.898438 652.667969 Z M 265.195312 668.804688 C 267.847656 669.21875 269.664062 671.707031 269.253906 674.359375 C 268.839844 677.011719 266.351562 678.828125 263.699219 678.417969 C 261.042969 678.003906 259.226562 675.515625 259.640625 672.863281 C 260.054688 670.210938 262.542969 668.394531 265.195312 668.804688 Z M 341.640625 681.152344 C 344.292969 681.5625 346.109375 684.050781 345.695312 686.703125 C 345.28125 689.359375 342.796875 691.175781 340.140625 690.761719 C 337.488281 690.347656 335.671875 687.863281 336.085938 685.207031 C 336.5 682.554688 338.984375 680.738281 341.640625 681.152344 Z M 245.757812 668.03125 C 248.414062 668.445312 250.230469 670.929688 249.816406 673.585938 C 249.402344 676.238281 246.914062 678.054688 244.261719 677.640625 C 241.609375 677.230469 239.792969 674.742188 240.207031 672.089844 C 240.617188 669.433594 243.105469 667.617188 245.757812 668.03125 Z M 609.132812 724.984375 C 611.789062 725.398438 613.605469 727.886719 613.191406 730.539062 C 612.777344 733.195312 610.292969 735.007812 607.636719 734.597656 C 604.984375 734.183594 603.167969 731.695312 603.582031 729.042969 C 603.996094 726.390625 606.480469 724.574219 609.132812 724.984375 Z M 359.917969 687.804688 C 362.570312 688.214844 364.386719 690.703125 363.976562 693.355469 C 363.5625 696.011719 361.074219 697.828125 358.421875 697.414062 C 355.769531 697 353.953125 694.511719 354.363281 691.859375 C 354.777344 689.207031 357.265625 687.390625 359.917969 687.804688 Z M 188.191406 661.46875 C 190.84375 661.878906 192.660156 664.367188 192.25 667.019531 C 191.835938 669.675781 189.347656 671.492188 186.695312 671.078125 C 184.042969 670.664062 182.226562 668.179688 182.636719 665.523438 C 183.050781 662.871094 185.539062 661.054688 188.191406 661.46875 Z M 226.3125 667.582031 C 228.964844 667.992188 230.78125 670.480469 230.367188 673.132812 C 229.957031 675.789062 227.46875 677.605469 224.816406 677.191406 C 222.160156 676.777344 220.34375 674.292969 220.757812 671.636719 C 221.171875 668.984375 223.660156 667.167969 226.3125 667.582031 Z M 206.921875 666.625 C 209.578125 667.039062 211.394531 669.527344 210.980469 672.179688 C 210.566406 674.832031 208.082031 676.648438 205.425781 676.234375 C 202.773438 675.824219 200.957031 673.335938 201.371094 670.683594 C 201.785156 668.027344 204.269531 666.210938 206.921875 666.625 Z M 377.539062 696.015625 C 380.195312 696.429688 382.011719 698.917969 381.597656 701.570312 C 381.183594 704.222656 378.695312 706.039062 376.042969 705.628906 C 373.390625 705.214844 371.574219 702.726562 371.988281 700.074219 C 372.398438 697.421875 374.886719 695.605469 377.539062 696.015625 Z M 394.058594 706.230469 C 396.714844 706.644531 398.53125 709.128906 398.117188 711.785156 C 397.703125 714.4375 395.21875 716.253906 392.5625 715.839844 C 389.910156 715.429688 388.09375 712.941406 388.507812 710.289062 C 388.921875 707.632812 391.40625 705.816406 394.058594 706.230469 Z M 606.519531 744.0625 C 609.175781 744.476562 610.988281 746.964844 610.578125 749.617188 C 610.164062 752.269531 607.675781 754.085938 605.023438 753.675781 C 602.371094 753.261719 600.554688 750.773438 600.964844 748.121094 C 601.378906 745.46875 603.867188 743.652344 606.519531 744.0625 Z M 410.277344 716.976562 C 412.929688 717.386719 414.746094 719.875 414.332031 722.527344 C 413.917969 725.183594 411.433594 727 408.777344 726.585938 C 406.125 726.171875 404.308594 723.6875 404.722656 721.03125 C 405.136719 718.378906 407.621094 716.5625 410.277344 716.976562 Z M 426.539062 727.648438 C 429.191406 728.0625 431.007812 730.550781 430.59375 733.203125 C 430.179688 735.855469 427.695312 737.671875 425.039062 737.257812 C 422.386719 736.847656 420.570312 734.359375 420.984375 731.707031 C 421.398438 729.050781 423.882812 727.234375 426.539062 727.648438 Z M 599.144531 761.914062 C 601.796875 762.328125 603.613281 764.8125 603.199219 767.46875 C 602.789062 770.121094 600.300781 771.9375 597.648438 771.523438 C 594.992188 771.109375 593.175781 768.625 593.589844 765.972656 C 594.003906 763.316406 596.488281 761.5 599.144531 761.914062 Z M 442.859375 738.230469 C 445.515625 738.644531 447.332031 741.128906 446.917969 743.78125 C 446.503906 746.4375 444.019531 748.253906 441.363281 747.839844 C 438.710938 747.425781 436.894531 744.941406 437.308594 742.285156 C 437.722656 739.632812 440.207031 737.816406 442.859375 738.230469 Z M 459.269531 748.671875 C 461.925781 749.085938 463.742188 751.574219 463.328125 754.226562 C 462.914062 756.878906 460.429688 758.695312 457.773438 758.28125 C 455.121094 757.871094 453.304688 755.382812 453.71875 752.730469 C 454.132812 750.074219 456.617188 748.257812 459.269531 748.671875 Z M 585.535156 775.617188 C 588.1875 776.03125 590.003906 778.519531 589.589844 781.171875 C 589.175781 783.828125 586.691406 785.640625 584.039062 785.230469 C 581.382812 784.816406 579.566406 782.328125 579.980469 779.675781 C 580.394531 777.023438 582.878906 775.207031 585.535156 775.617188 Z M 475.820312 758.894531 C 478.476562 759.308594 480.292969 761.792969 479.878906 764.449219 C 479.464844 767.101562 476.976562 768.917969 474.324219 768.503906 C 471.671875 768.089844 469.855469 765.605469 470.269531 762.949219 C 470.679688 760.296875 473.167969 758.480469 475.820312 758.894531 Z M 492.65625 768.636719 C 495.308594 769.050781 497.125 771.535156 496.710938 774.1875 C 496.300781 776.84375 493.8125 778.660156 491.160156 778.246094 C 488.503906 777.832031 486.6875 775.347656 487.101562 772.691406 C 487.515625 770.039062 490 768.222656 492.65625 768.636719 Z M 567.765625 783.203125 C 570.417969 783.617188 572.234375 786.101562 571.824219 788.757812 C 571.410156 791.410156 568.921875 793.226562 566.269531 792.8125 C 563.617188 792.402344 561.800781 789.914062 562.210938 787.261719 C 562.625 784.605469 565.113281 782.789062 567.765625 783.203125 Z M 510.59375 775.90625 C 513.246094 776.320312 515.0625 778.804688 514.648438 781.460938 C 514.238281 784.113281 511.75 785.929688 509.097656 785.515625 C 506.441406 785.101562 504.625 782.617188 505.039062 779.960938 C 505.453125 777.308594 507.941406 775.492188 510.59375 775.90625 Z M 548.425781 784.4375 C 551.082031 784.851562 552.898438 787.335938 552.484375 789.992188 C 552.070312 792.644531 549.585938 794.460938 546.929688 794.046875 C 544.277344 793.632812 542.460938 791.148438 542.875 788.496094 C 543.289062 785.839844 545.773438 784.023438 548.425781 784.4375 Z M 529.230469 781.464844 C 531.882812 781.878906 533.699219 784.363281 533.285156 787.019531 C 532.875 789.671875 530.386719 791.488281 527.734375 791.074219 C 525.078125 790.660156 523.261719 788.175781 523.675781 785.519531 C 524.089844 782.867188 526.578125 781.050781 529.230469 781.464844 Z M 529.230469 781.464844 " fill-opacity="1" fill-rule="nonzero"/></g></g></g></g></g></g><path fill="#ecc0b0" d="M 254.828125 567.964844 L 287.832031 532.84375 L 288.078125 532.597656 C 310.769531 508.199219 276.316406 472.15625 249.070312 501.59375 L 224.65625 527.988281 C 221.949219 530.9375 219.914062 533.949219 218.53125 536.929688 C 207.847656 559.851562 234.695312 580.960938 254.828125 567.964844 Z M 254.828125 567.964844 " fill-opacity="1" fill-rule="evenodd"/><path fill="#ecc0b0" d="M 293.652344 596.082031 L 330.101562 557.671875 L 334.660156 552.878906 C 357.625 528.632812 321.605469 496.921875 299.683594 520.214844 L 288.078125 532.597656 C 287.984375 532.660156 287.925781 532.71875 287.863281 532.8125 L 287.832031 532.84375 L 254.828125 567.964844 C 235.523438 588.492188 270.253906 620.753906 290.140625 599.765625 L 291.773438 598.078125 L 293.589844 596.140625 Z M 293.652344 596.082031 " fill-opacity="1" fill-rule="evenodd"/><path fill="#ecc0b0" d="M 293.652344 596.082031 L 293.589844 596.140625 C 293.621094 596.109375 293.621094 596.109375 293.652344 596.082031 Z M 329.300781 626.992188 L 363.167969 593.46875 C 363.445312 593.160156 363.722656 592.855469 364 592.578125 C 385.488281 569.65625 354.640625 536.164062 330.101562 557.671875 L 293.652344 596.082031 L 293.589844 596.140625 L 291.773438 598.078125 C 275.546875 617.28125 303.289062 650.929688 328.195312 628.066406 C 328.5625 627.730469 328.933594 627.359375 329.300781 626.992188 Z M 329.300781 626.992188 " fill-opacity="1" fill-rule="evenodd"/><path fill="#ecc0b0" d="M 391.738281 629.601562 C 416.523438 603.238281 381.085938 576.136719 364 592.578125 C 363.722656 592.882812 363.445312 593.160156 363.167969 593.46875 L 329.300781 626.992188 C 328.933594 627.359375 328.5625 627.730469 328.195312 628.066406 C 311.875 644.78125 342.355469 682.148438 367.261719 655.628906 L 369.910156 652.832031 Z M 391.738281 629.601562 " fill-opacity="1" fill-rule="evenodd"/><path fill="#f9e4d0" d="M 507.558594 578.195312 C 530.710938 592.515625 563.867188 561.265625 548.785156 543.015625 C 548.351562 542.769531 547.890625 542.523438 547.460938 542.277344 C 519.441406 526.699219 514.054688 528.664062 493.550781 494.3125 L 441.582031 466.042969 C 411.65625 461.035156 382.902344 467.886719 357.257812 433.996094 C 348.976562 423.085938 343.710938 406.21875 349.28125 394.878906 C 313.355469 386.367188 296.667969 390.207031 287.0625 390.238281 C 286.632812 390.851562 286.167969 391.4375 285.675781 392.019531 L 208.1875 484.480469 C 205.261719 502.667969 209.140625 518.554688 218.53125 536.929688 C 219.914062 533.949219 221.949219 530.9375 224.65625 527.988281 L 249.070312 501.59375 C 276.316406 472.15625 310.769531 508.199219 288.078125 532.597656 L 299.683594 520.214844 C 321.605469 496.921875 357.625 528.632812 334.660156 552.878906 L 330.101562 557.671875 C 354.640625 536.164062 385.488281 569.65625 364 592.578125 C 381.085938 576.136719 416.523438 603.238281 391.738281 629.601562 L 369.910156 652.832031 C 377.269531 661.253906 387.921875 671.207031 397.1875 677.476562 C 414.953125 689.519531 450.910156 673.667969 438.042969 645.765625 C 462.085938 664.140625 495.335938 629.296875 471.722656 609.324219 C 500.785156 631.109375 526.402344 594.390625 507.558594 578.195312 Z M 507.558594 578.195312 " fill-opacity="1" fill-rule="evenodd"/><path fill="#07dac0" d="M 208.1875 484.480469 L 285.675781 392.019531 C 286.167969 391.4375 286.632812 390.851562 287.0625 390.238281 C 294.882812 379.144531 292.972656 363.597656 282.351562 354.71875 L 255.074219 331.917969 C 243.867188 322.578125 227.058594 324.082031 217.699219 335.238281 L 138.421875 429.816406 C 129.0625 441 130.570312 457.777344 141.746094 467.117188 L 169.054688 489.886719 C 180.230469 499.226562 197.070312 497.753906 206.429688 486.570312 Z M 208.1875 484.480469 " fill-opacity="1" fill-rule="evenodd"/><path fill="#ecc0b0" d="M 547.460938 542.277344 C 565.4375 531.859375 585.820312 512.011719 601.550781 483.894531 L 530.09375 398.65625 C 508.113281 390.515625 483.824219 382.003906 453.621094 387.566406 C 427.757812 392.359375 400.082031 384.648438 378.253906 383.140625 C 361.90625 382.035156 353.101562 387.167969 349.28125 394.878906 C 343.710938 406.21875 348.976562 423.085938 357.257812 433.996094 C 382.902344 467.886719 411.65625 461.035156 441.582031 466.042969 L 493.550781 494.3125 C 514.054688 528.664062 519.441406 526.699219 547.460938 542.277344 Z M 547.460938 542.277344 " fill-opacity="1" fill-rule="evenodd"/><path fill="#fb5490" d="M 668.453125 467.117188 C 679.660156 457.777344 681.136719 441 671.777344 429.816406 L 592.5 335.238281 C 583.140625 324.082031 566.332031 322.578125 555.15625 331.917969 L 527.847656 354.71875 C 516.671875 364.058594 515.164062 380.835938 524.523438 392.019531 L 530.09375 398.65625 L 601.550781 483.894531 L 603.800781 486.570312 C 613.160156 497.753906 629.96875 499.226562 641.175781 489.886719 Z M 668.453125 467.117188 " fill-opacity="1" fill-rule="evenodd"/><g clip-path="url(#937701ed4a)"><path fill="#000000" d="M 676.792969 425.605469 L 597.515625 331.023438 C 585.808594 317.070312 564.921875 315.214844 550.960938 326.886719 L 523.652344 349.6875 C 523.652344 349.6875 523.652344 349.6875 523.652344 349.691406 C 516.898438 355.332031 512.746094 363.292969 511.960938 372.101562 C 511.535156 376.886719 512.140625 381.59375 513.675781 385.980469 C 496.371094 380.585938 476.160156 376.75 452.425781 381.125 C 435.503906 384.257812 417.734375 381.703125 400.550781 379.230469 C 392.859375 378.125 385.597656 377.082031 378.703125 376.605469 C 360.644531 375.363281 351.195312 381.179688 346.25 387.472656 C 322.730469 382.339844 307.464844 382.5 297.398438 383.089844 C 298.285156 379.539062 298.582031 375.824219 298.246094 372.066406 C 297.457031 363.265625 293.300781 355.316406 286.542969 349.683594 L 259.265625 326.886719 C 245.277344 315.226562 224.382812 317.082031 212.683594 331.027344 L 133.402344 425.609375 C 127.753906 432.359375 125.078125 440.925781 125.863281 449.730469 C 126.648438 458.542969 130.796875 466.503906 137.554688 472.152344 L 164.859375 494.914062 C 171.042969 500.082031 178.570312 502.605469 186.0625 502.605469 C 191.117188 502.605469 196.144531 501.445312 200.734375 499.1875 C 201.199219 511.300781 204.617188 523.375 211.324219 537.132812 C 207.132812 548.867188 210.847656 559.765625 216.699219 566.742188 C 223.089844 574.367188 232.296875 578.402344 241.539062 578.402344 C 241.972656 578.402344 242.402344 578.375 242.832031 578.359375 C 241.671875 587.792969 245.980469 597.289062 252.9375 603.867188 C 258.929688 609.53125 266.929688 613.164062 275.050781 613.164062 C 276.839844 613.160156 278.632812 612.980469 280.414062 612.613281 C 280.503906 614.429688 280.769531 616.273438 281.21875 618.128906 C 283.894531 629.179688 292.445312 638.253906 303.007812 641.246094 C 305.535156 641.964844 308.082031 642.316406 310.621094 642.316406 C 312.800781 642.316406 314.976562 642.046875 317.128906 641.53125 C 317.238281 643.046875 317.472656 644.589844 317.851562 646.148438 C 320.671875 657.726562 330.109375 667.5 341.34375 670.464844 C 343.742188 671.097656 346.140625 671.410156 348.523438 671.410156 C 356.011719 671.410156 363.316406 668.3125 369.761719 662.359375 C 377.332031 670.25 386.179688 677.9375 393.515625 682.902344 C 398.667969 686.394531 405.074219 688.09375 411.675781 688.09375 C 420.582031 688.09375 429.839844 685.003906 436.84375 679.050781 C 443.785156 673.15625 447.34375 665.414062 447.289062 657.015625 C 459.695312 659.378906 472.023438 653.4375 479.332031 644.335938 C 484.820312 637.5 487.046875 629.71875 486.125 622.347656 C 497.582031 623.703125 507.640625 618.5 513.71875 610.925781 C 519.226562 604.054688 521.367188 595.902344 520.238281 588.425781 C 520.328125 588.425781 520.421875 588.433594 520.511719 588.433594 C 532.039062 588.433594 543.3125 582.316406 550.65625 573.878906 C 559.023438 564.269531 561.246094 553.09375 557.039062 543.96875 C 573.835938 532.621094 589.957031 515.25 602.71875 494.75 C 608.816406 499.933594 616.464844 502.59375 624.164062 502.59375 C 631.652344 502.59375 639.183594 500.074219 645.371094 494.917969 L 672.644531 472.152344 C 679.398438 466.519531 683.554688 458.570312 684.347656 449.769531 C 685.136719 440.953125 682.457031 432.371094 676.792969 425.605469 Z M 173.246094 484.855469 L 145.945312 462.089844 C 141.878906 458.691406 139.378906 453.890625 138.90625 448.570312 C 138.433594 443.25 140.042969 438.085938 143.4375 434.027344 L 222.714844 339.449219 C 226.664062 334.746094 232.347656 332.316406 238.066406 332.316406 C 242.59375 332.316406 247.144531 333.835938 250.875 336.949219 L 278.152344 359.746094 C 278.15625 359.75 278.160156 359.75 278.160156 359.753906 C 282.226562 363.140625 284.726562 367.929688 285.203125 373.238281 C 285.679688 378.5625 284.066406 383.738281 280.660156 387.8125 L 201.410156 482.363281 C 194.34375 490.808594 181.710938 491.929688 173.246094 484.855469 Z M 226.734375 558.324219 C 220.417969 550.785156 221.4375 541.109375 229.460938 532.441406 L 253.875 506.046875 C 260.460938 498.933594 267.953125 495.910156 274.972656 497.539062 C 281.132812 498.96875 286.316406 503.902344 288.175781 510.105469 C 290.03125 516.308594 288.3125 522.664062 283.339844 528.046875 L 250.703125 562.792969 C 241.859375 568.074219 232.011719 564.621094 226.734375 558.324219 Z M 261.929688 594.339844 C 257.421875 590.082031 251.863281 580.679688 259.597656 572.453125 L 304.453125 524.707031 C 308.890625 519.988281 313.480469 518.625 317.300781 518.625 C 318.726562 518.625 320.042969 518.816406 321.207031 519.09375 C 327.574219 520.605469 333.058594 525.675781 334.855469 531.714844 C 336.550781 537.402344 334.839844 543.164062 329.910156 548.363281 L 285.390625 595.257812 C 277 604.109375 266.695312 598.847656 261.929688 594.339844 Z M 306.574219 628.636719 C 300.578125 626.9375 295.503906 621.476562 293.945312 615.042969 C 293.253906 612.1875 292.824219 606.945312 296.84375 602.21875 L 334.609375 562.441406 C 339.496094 558.25 344.882812 556.542969 350.15625 557.617188 C 356.5 558.90625 362.058594 564.109375 363.980469 570.5625 C 365.894531 576.96875 363.964844 583.449219 358.5625 588.808594 L 324.691406 622.339844 C 318.828125 628.15625 312.5625 630.335938 306.574219 628.636719 Z M 344.6875 657.796875 C 338.171875 656.074219 332.238281 649.871094 330.574219 643.046875 C 329.816406 639.929688 329.683594 635.515625 333.359375 632.1875 C 333.390625 632.160156 367.777344 598.121094 367.777344 598.121094 C 367.847656 598.050781 367.914062 597.976562 367.984375 597.902344 C 367.988281 597.898438 367.996094 597.894531 368 597.890625 C 371.792969 593.742188 376.523438 593.757812 379.820312 594.5 C 385.972656 595.890625 391.296875 600.703125 393.066406 606.476562 C 394.902344 612.464844 392.792969 618.914062 386.96875 625.113281 L 362.492188 651.140625 C 356.898438 657.09375 350.738281 659.394531 344.6875 657.796875 Z M 540.78125 565.269531 C 533.765625 573.332031 521.066406 578.644531 511.226562 572.753906 C 508.933594 571 505.960938 568.28125 503.078125 565.636719 C 501.300781 564.007812 499.457031 562.316406 497.773438 560.859375 C 495.039062 558.492188 490.90625 558.789062 488.539062 561.527344 C 486.171875 564.261719 486.46875 568.398438 489.203125 570.769531 C 490.746094 572.105469 492.441406 573.65625 494.230469 575.300781 C 497.347656 578.15625 500.5625 581.101562 503.34375 583.21875 C 509.457031 588.53125 508.0625 597.042969 503.503906 602.722656 C 498.117188 609.4375 487.972656 613.320312 475.648438 604.078125 C 475.640625 604.074219 475.628906 604.070312 475.621094 604.0625 C 475.292969 603.820312 474.941406 603.601562 474.5625 603.421875 C 474.554688 603.414062 474.546875 603.410156 474.539062 603.40625 C 474.535156 603.40625 474.535156 603.40625 474.535156 603.40625 C 469.753906 601.09375 465.617188 597.457031 462.203125 594.195312 C 459.585938 591.699219 455.441406 591.796875 452.945312 594.417969 C 450.449219 597.035156 450.546875 601.183594 453.164062 603.679688 C 456.886719 607.230469 461.890625 611.625 467.929688 614.730469 C 475.796875 621.765625 473.757812 630.355469 469.121094 636.125 C 464.089844 642.390625 452.722656 648.738281 442.015625 640.558594 C 441.996094 640.542969 441.972656 640.535156 441.953125 640.519531 C 441.910156 640.488281 441.875 640.453125 441.832031 640.421875 C 440.621094 639.5625 439.484375 638.789062 438.402344 638.050781 C 433.902344 634.984375 430.925781 632.957031 427.449219 628.015625 C 425.367188 625.054688 421.28125 624.34375 418.328125 626.425781 C 415.367188 628.511719 414.660156 632.597656 416.742188 635.554688 C 421.589844 642.449219 425.964844 645.429688 431.03125 648.882812 C 431.585938 649.257812 432.15625 649.648438 432.742188 650.054688 C 436.417969 659.488281 432.476562 665.574219 428.367188 669.0625 C 420.6875 675.585938 408.09375 676.957031 400.855469 672.046875 C 394.089844 667.472656 385.851562 660.273438 378.832031 652.886719 L 396.511719 634.089844 C 408.785156 621.015625 407.464844 608.769531 405.585938 602.632812 C 402.4375 592.355469 393.453125 584.144531 382.699219 581.71875 C 380.863281 581.304688 379.042969 581.082031 377.257812 581.035156 C 378.164062 576.390625 377.949219 571.574219 376.53125 566.816406 C 373.210938 555.691406 363.882812 547.039062 352.769531 544.777344 C 350.941406 544.402344 349.113281 544.234375 347.289062 544.21875 C 348.925781 538.914062 349.011719 533.363281 347.40625 527.972656 C 344.269531 517.429688 335.167969 508.9375 324.230469 506.34375 C 316.335938 504.46875 308.421875 505.875 301.601562 510.183594 C 301.390625 508.902344 301.101562 507.617188 300.71875 506.339844 C 297.484375 495.550781 288.753906 487.285156 277.933594 484.777344 C 271.105469 483.1875 257.648438 482.6875 244.265625 497.144531 L 219.851562 523.535156 C 219.789062 523.605469 219.730469 523.675781 219.667969 523.746094 C 214.371094 510.671875 212.777344 499.261719 214.410156 487.246094 L 290.3125 396.683594 C 291.476562 396.621094 292.707031 396.535156 294.027344 396.445312 C 303.421875 395.78125 317.21875 394.816406 340.914062 399.730469 C 338.613281 412.796875 344.386719 427.867188 352.035156 437.949219 C 373.734375 466.625 397.882812 468.546875 421.234375 470.410156 C 427.210938 470.886719 433.378906 471.375 439.433594 472.332031 L 488.863281 499.21875 C 506.195312 527.941406 513.878906 531.96875 531.976562 541.414062 C 535.242188 543.121094 538.898438 545.035156 543.027344 547.3125 C 543.480469 547.707031 543.980469 548.03125 544.515625 548.28125 C 547.914062 553.6875 544.9375 560.5 540.78125 565.269531 Z M 547.300781 534.710938 C 543.886719 532.851562 540.824219 531.253906 538.035156 529.796875 C 520.550781 520.667969 515.273438 517.914062 499.171875 490.949219 C 499.15625 490.921875 499.136719 490.898438 499.121094 490.871094 C 499.046875 490.753906 498.96875 490.640625 498.890625 490.527344 C 498.839844 490.460938 498.792969 490.390625 498.746094 490.328125 C 498.667969 490.226562 498.585938 490.132812 498.503906 490.035156 C 498.441406 489.964844 498.378906 489.890625 498.316406 489.820312 C 498.242188 489.742188 498.164062 489.667969 498.085938 489.59375 C 498.003906 489.515625 497.921875 489.4375 497.839844 489.363281 C 497.769531 489.304688 497.699219 489.246094 497.625 489.191406 C 497.523438 489.109375 497.421875 489.03125 497.316406 488.957031 C 497.25 488.910156 497.183594 488.867188 497.113281 488.824219 C 497 488.746094 496.882812 488.671875 496.761719 488.605469 C 496.730469 488.589844 496.707031 488.570312 496.679688 488.554688 L 444.710938 460.285156 C 444.070312 459.9375 443.378906 459.699219 442.664062 459.582031 C 435.710938 458.417969 428.878906 457.871094 422.273438 457.347656 C 399.929688 455.566406 380.628906 454.027344 362.472656 430.03125 C 355.371094 420.671875 350.777344 405.878906 355.390625 397.332031 C 359.339844 390.003906 369.761719 389.125 377.804688 389.679688 C 384.214844 390.121094 391.242188 391.132812 398.6875 392.203125 C 416.070312 394.703125 435.773438 397.535156 454.804688 394.007812 C 483.300781 388.761719 506.996094 397.101562 526.183594 404.195312 L 593.585938 484.582031 C 580.875 506.007812 564.3125 523.941406 547.300781 534.710938 Z M 671.304688 448.597656 C 670.828125 453.90625 668.324219 458.695312 664.257812 462.085938 L 636.984375 484.851562 C 628.511719 491.914062 615.878906 490.796875 608.816406 482.355469 L 529.542969 387.816406 C 526.144531 383.75 524.53125 378.585938 525.007812 373.265625 C 525.480469 367.945312 527.980469 363.144531 532.046875 359.746094 L 559.355469 336.949219 C 567.792969 329.894531 580.410156 331.019531 587.484375 339.449219 L 666.757812 434.023438 C 670.167969 438.097656 671.78125 443.273438 671.304688 448.597656 Z M 671.304688 448.597656 " fill-opacity="1" fill-rule="nonzero"/></g></svg>